<?xml version="1.0" encoding="UTF-8"?><svg id="Calque_2" xmlns="http://www.w3.org/2000/svg" xmlns:xlink="http://www.w3.org/1999/xlink" viewBox="0 0 225.62 48.12"><defs><style>.cls-1{fill:#00c490;}.cls-1,.cls-2,.cls-3,.cls-4{stroke-width:0px;}.cls-2{fill:#0086c7;}.cls-3{fill:#f16c76;}.cls-4{fill:url(#Dégradé_sans_nom_35);}</style><linearGradient id="Dégradé_sans_nom_35" x1="0" y1="23.98" x2="46.07" y2="23.98" gradientUnits="userSpaceOnUse"><stop offset="0" stop-color="#f16c76"/><stop offset=".12" stop-color="#f5826b"/><stop offset=".28" stop-color="#f99662"/><stop offset=".45" stop-color="#fca45b"/><stop offset=".66" stop-color="#fead57"/><stop offset="1" stop-color="#ffb056"/></linearGradient></defs><g id="Calque_1-2"><path class="cls-2" d="M91.69,46.79l-3.52-10.79c.93-.22,1.87-.49,2.84-.8.34-.11.53-.48.41-.83l-.91-2.69c-.11-.33-.48-.51-.81-.4-.97.31-1.9.56-2.82.77l-.75-2.3L76.84,1.24c-.13-.36-.4-.53-.8-.53h-4.55c-.4,0-.67.18-.8.53l-7.67,23.63-.09.27c-1.33-1.42-2.21-2.67-2.65-3.35-.19-.29-.56-.38-.86-.22l-2.47,1.39c-.33.18-.43.6-.23.91.67,1.02,2.26,3.25,4.81,5.58l-1.73,5.34-1.42,4.37-2.48,7.63c-.13.49.04.74.53.74h3.61c.4,0,.67-.18.8-.54l4.01-12.84.54-1.69c3.79,2.48,8.8,4.49,15.08,4.49.97,0,1.98-.06,3.01-.16l3.24,10.2c.13.36.4.54.8.54h3.61c.4,0,.6-.16.6-.47l-.07-.27ZM66.69,28.43l.04-.11,6.84-21.45c.04-.09.11-.13.2-.13s.16.04.2.13l7.78,24.43.47,1.46c-6.77.46-11.9-1.73-15.52-4.32Z"/><path class="cls-1" d="M102.1,46.29c-2.36-1.23-4.2-2.97-5.52-5.22-1.32-2.25-1.97-4.85-1.97-7.79V14.89c0-2.9.66-5.46,1.97-7.69,1.31-2.23,3.15-3.96,5.52-5.18,2.36-1.23,4.01-1.84,7.14-1.84s4.77.6,7.14,1.81c2.36,1.2,4.2,2.9,5.52,5.08,1.31,2.19,1.97,4.7,1.97,7.56,0,.22-.07.4-.2.54s-.29.2-.47.2l-3.41.2c-.45,0-.67-.2-.67-.6v-.2c0-3.17-1-5.69-3.01-7.59-2.01-1.89-3.57-2.84-6.87-2.84s-4.86.96-6.87,2.88c-2.01,1.92-3.01,4.44-3.01,7.56v18.73c0,3.12,1,5.64,3.01,7.56,2.01,1.92,3.57,2.88,6.87,2.88s4.86-.95,6.87-2.84c2.01-1.89,3.01-4.42,3.01-7.59v-.13c0-.4.22-.6.67-.6l3.41.2c.45,0,.67.2.67.6,0,2.9-.66,5.45-1.97,7.66s-3.15,3.91-5.52,5.12c-2.36,1.2-4.02,1.81-7.14,1.81s-4.77-.61-7.14-1.84Z"/><path class="cls-1" d="M156.61.71h-3.41c-.37,0-.67.3-.67.67v10.35c-5.69,3.47-11.6,6.66-17.64,9.5V1.38c0-.37-.3-.67-.67-.67h-3.41c-.37,0-.67.3-.67.67v45.48c0,.37.3.67.67.67h3.41c.37,0,.67-.3.67-.67v-21.08c6.02-2.76,11.93-5.85,17.64-9.23v-.4,30.71c0,.37.3.67.67.67h3.41c.37,0,.67-.3.67-.67V1.38c0-.37-.3-.67-.67-.67Z"/><path class="cls-3" d="M165.86,46.85V1.38c0-.45.22-.67.67-.67h3.41c.45,0,.67.22.67.67v45.48c0,.45-.22.67-.67.67h-3.41c-.45,0-.67-.22-.67-.67Z"/><path class="cls-3" d="M179.95,46.85V1.38c0-.45.22-.67.67-.67h3.41c.45,0,.67.22.67.67v41.73c0,.18.09.27.27.27h11.13c.45,0,.67.22.67.67v2.81c0,.45-.22.67-.67.67h-15.48c-.45,0-.67-.22-.67-.67Z"/><path class="cls-3" d="M224.95,4.85h-17.49c-.18,0-.27.09-.27.27v16.52c0,.18.09.27.27.27h9.92c.45,0,.67.22.67.67v2.81c0,.45-.22.67-.67.67h-9.92c-.18,0-.27.09-.27.27v16.79c0,.18.09.27.27.27h17.49c.45,0,.67.22.67.67v2.81c0,.45-.22.67-.67.67h-21.83c-.45,0-.67-.22-.67-.67V1.38c0-.45.22-.67.67-.67h21.83c.45,0,.67.22.67.67v2.81c0,.45-.22.67-.67.67Z"/><path class="cls-3" d="M165.86,46.85V1.38c0-.45.22-.67.67-.67h3.41c.45,0,.67.22.67.67v45.48c0,.45-.22.67-.67.67h-3.41c-.45,0-.67-.22-.67-.67Z"/><path class="cls-4" d="M38.12,12.46h.03c1.62,0,3.17-.64,4.35-1.81,1.19-1.18,1.85-2.74,1.86-4.39,0-1.69-.63-3.26-1.79-4.43C41.4.65,39.84,0,38.15,0h-.02C34.73,0,31.94,2.76,31.91,6.17c-.01,1.67.63,3.24,1.8,4.43,1.18,1.19,2.74,1.85,4.41,1.86ZM38.14,2.31h.01c1.06,0,2.05.41,2.77,1.14.73.73,1.12,1.73,1.12,2.8,0,1.03-.42,2.01-1.17,2.75-.75.74-1.7,1.14-2.74,1.14-1.05,0-2.03-.42-2.77-1.17-.74-.75-1.14-1.74-1.14-2.79.02-2.17,1.73-3.87,3.91-3.87ZM45.85,20.14c-.96-4.97-5.16-6.9-7.24-7.22-5.98-.95-9.55,3.46-11.11,7.03-1.53-1.53-4.18-3.63-7.35-3.52-2.77.1-5.24,1.85-7.33,5.19-.49.78-1.53,2.74-.77,4.24.22.43.78,1.17,2.09,1.26,1.35.09,2.83-.99,4-2.17.19,2.1.74,4.74,2.27,6.4.99,1.08,2.25,1.63,3.74,1.65,1.06,0,1.31.38,1.39.5.59.88.17,3.12-1.25,6.65-.3.75-.53,1.49-.75,2.21-.47,1.54-.88,2.86-1.67,3.18-.53.21-1.7.17-4.22-1.25-4.41-2.48-8.68-6.1-11.41-9.69-3.66-4.8-4.76-9.47-3.27-13.88.84-2.49,2.54-4.36,4.67-5.13,2.01-.73,4.27-.43,6.35.84.54.33,1.26.16,1.59-.38.33-.54.16-1.26-.38-1.59-2.7-1.65-5.66-2.02-8.35-1.04-2.79,1.02-5.01,3.41-6.07,6.57-3.91,11.58,8.06,21.99,15.75,26.32,1.95,1.1,3.52,1.64,4.8,1.64.51,0,.98-.09,1.41-.26,1.82-.72,2.43-2.72,3.02-4.65.21-.68.42-1.37.69-2.03,1.35-3.35,2.4-6.74,1.02-8.8-.46-.69-1.4-1.51-3.29-1.52-.83,0-1.51-.3-2.05-.9-1.75-1.9-1.83-6.35-1.71-7.9.04-.52-.27-1-.77-1.18-.49-.17-1.04,0-1.34.43-1.24,1.78-3.21,3.71-3.99,3.68-.1,0-.17-.02-.2-.03-.05-.23.09-.98.68-1.93,1.67-2.66,3.5-4.04,5.45-4.11.06,0,.11,0,.17,0,3.53,0,6.57,4.09,6.6,4.13.26.36.71.54,1.15.46.44-.08.79-.41.9-.84,0-.02.58-2.16,2.06-4.15,1.88-2.53,4.28-3.59,7.14-3.13.18.03,4.44.78,5.33,5.38,1.02,5.29-1.77,18.82-16.7,24.56-.6.23-.89.9-.66,1.49.23.6.9.89,1.49.66,16.29-6.26,19.28-21.27,18.14-27.16ZM23.89,16.47h.02c1.38,0,2.66-.54,3.61-1.5.96-.96,1.48-2.26,1.47-3.64-.02-2.83-2.24-5.04-5.07-5.04h-.01c-1.38,0-2.67.54-3.63,1.5-.95.96-1.47,2.25-1.47,3.63.02,2.79,2.29,5.06,5.07,5.06ZM21.93,9.4c.52-.52,1.22-.81,1.99-.81h0c1.56,0,2.74,1.18,2.75,2.75h0c0,.77-.28,1.48-.8,2-.52.52-1.22.81-1.98.82h-.01c-1.51,0-2.74-1.24-2.75-2.76,0-.76.28-1.47.8-1.99ZM8.68,12.46h.03c1.62,0,3.17-.64,4.35-1.81,1.19-1.18,1.85-2.74,1.86-4.39,0-1.69-.63-3.26-1.79-4.43C11.96.65,10.39,0,8.71,0,5.28-.03,2.49,2.76,2.47,6.17c-.01,1.67.63,3.24,1.8,4.43,1.18,1.19,2.74,1.85,4.41,1.86ZM8.69,2.31h.01c1.06,0,2.05.41,2.77,1.14.73.73,1.12,1.73,1.12,2.8,0,1.03-.42,2.01-1.17,2.75-.75.74-1.71,1.14-2.74,1.14-1.05,0-2.03-.42-2.77-1.17-.74-.75-1.14-1.74-1.14-2.79.02-2.17,1.74-3.87,3.91-3.87Z"/></g></svg>