<?xml version="1.0" encoding="UTF-8"?><svg id="Calque_2" xmlns="http://www.w3.org/2000/svg" viewBox="0 0 130.95 136.31"><defs><style>.cls-1{fill:#1d1d1b;stroke-width:0px;}</style></defs><g id="Calque_1-2"><path class="cls-1" d="M108.37,35.42h.09c4.62,0,9-1.83,12.35-5.15,3.39-3.36,5.26-7.79,5.28-12.48.01-4.79-1.79-9.27-5.09-12.6C117.7,1.85,113.25.01,108.46,0h-.05C98.73,0,90.8,7.85,90.72,17.53c-.04,4.74,1.78,9.21,5.12,12.6,3.34,3.39,7.79,5.27,12.53,5.29ZM108.41,6.58h.03c3.02,0,5.83,1.16,7.89,3.24,2.06,2.08,3.2,4.91,3.19,7.95,0,2.92-1.19,5.7-3.33,7.83-2.13,2.11-4.83,3.24-7.78,3.25-2.98-.02-5.78-1.2-7.89-3.34-2.11-2.13-3.25-4.95-3.23-7.92.05-6.18,4.93-11,11.12-11ZM67.91,46.82h.06c3.92-.02,7.57-1.53,10.28-4.27,2.72-2.74,4.2-6.42,4.17-10.35-.05-8.05-6.37-14.34-14.4-14.34h-.04c-3.93,0-7.6,1.52-10.31,4.26-2.71,2.73-4.19,6.4-4.17,10.33.05,7.94,6.5,14.38,14.4,14.38ZM62.34,26.73c1.47-1.48,3.48-2.3,5.65-2.31h.02c4.44,0,7.8,3.35,7.83,7.8h0c.01,2.18-.79,4.2-2.27,5.69-1.47,1.49-3.47,2.31-5.63,2.32h-.03c-4.29,0-7.8-3.51-7.83-7.84-.01-2.17.79-4.18,2.26-5.66ZM130.34,57.27c-2.73-14.14-14.66-19.61-20.57-20.53-17.01-2.7-27.14,9.82-31.58,19.98-4.35-4.36-11.88-10.32-20.88-10-7.87.28-14.88,5.25-20.85,14.77-1.38,2.21-4.36,7.79-2.2,12.05.62,1.23,2.22,3.32,5.93,3.59,3.83.26,8.06-2.81,11.38-6.17.53,5.97,2.11,13.47,6.44,18.18,2.82,3.07,6.4,4.65,10.63,4.68,3.01.03,3.72,1.07,3.95,1.42,1.68,2.51.48,8.87-3.55,18.91-.86,2.13-1.51,4.25-2.14,6.3-1.34,4.37-2.5,8.14-4.75,9.03-1.52.61-4.84.48-12-3.55-12.54-7.06-24.67-17.35-32.44-27.54-10.41-13.64-13.54-26.91-9.31-39.45,2.39-7.07,7.23-12.39,13.28-14.59,5.71-2.08,12.13-1.23,18.06,2.39,1.55.94,3.57.46,4.52-1.09.95-1.55.46-3.57-1.09-4.52-7.67-4.68-16.1-5.73-23.73-2.96-7.94,2.89-14.24,9.69-17.27,18.67-11.11,32.93,22.91,62.53,44.76,74.82,5.55,3.13,10,4.65,13.65,4.65,1.46,0,2.79-.25,4.01-.73,5.16-2.06,6.91-7.73,8.59-13.21.59-1.92,1.2-3.91,1.95-5.78,3.83-9.53,6.83-19.16,2.91-25.01-1.31-1.95-3.99-4.29-9.35-4.33-2.37-.02-4.28-.85-5.84-2.55-4.98-5.41-5.2-18.05-4.87-22.45.11-1.48-.78-2.85-2.17-3.35-1.4-.49-2.95,0-3.8,1.22-3.53,5.06-9.13,10.55-11.35,10.45-.3-.02-.47-.07-.57-.1-.15-.65.24-2.79,1.93-5.49,4.73-7.55,9.95-11.48,15.49-11.69.16,0,.31,0,.47,0,10.03,0,18.69,11.63,18.77,11.75.75,1.02,2.01,1.53,3.26,1.29,1.25-.23,2.25-1.16,2.57-2.39.02-.06,1.65-6.14,5.85-11.79,5.34-7.2,12.17-10.19,20.3-8.91.51.09,12.63,2.23,15.15,15.28,2.9,15.04-5.02,53.5-47.47,69.82-1.7.65-2.54,2.55-1.89,4.25.65,1.7,2.56,2.54,4.25,1.89,46.3-17.8,54.8-60.47,51.57-77.21ZM24.66,35.42h.09c4.62,0,9-1.83,12.35-5.15,3.39-3.36,5.26-7.79,5.28-12.48.01-4.79-1.79-9.27-5.09-12.6C33.99,1.85,29.54.01,24.75,0,15.02-.1,7.09,7.84,7.01,17.53c-.04,4.73,1.78,9.21,5.13,12.59,3.34,3.39,7.79,5.27,12.53,5.29ZM24.7,6.58h.03c3.02,0,5.83,1.16,7.89,3.24,2.06,2.08,3.2,4.91,3.19,7.95,0,2.92-1.19,5.7-3.33,7.83-2.13,2.11-4.86,3.24-7.78,3.25-2.98-.02-5.78-1.2-7.89-3.34-2.11-2.13-3.25-4.95-3.23-7.92.05-6.18,4.93-11,11.12-11Z"/></g></svg>