<?xml version="1.0" encoding="UTF-8"?><svg id="Calque_2" xmlns="http://www.w3.org/2000/svg" xmlns:xlink="http://www.w3.org/1999/xlink" viewBox="0 0 228.05 82.39"><defs><style>.cls-1{fill:#007cc1;}.cls-1,.cls-2,.cls-3,.cls-4,.cls-5,.cls-6,.cls-7{stroke-width:0px;}.cls-2{fill:#00c490;}.cls-3{fill:#0086c7;}.cls-4{fill:#f16c76;}.cls-5{fill:#fff;}.cls-6{fill:#0071ba;}.cls-7{fill:url(#Dégradé_sans_nom_35);}</style><linearGradient id="Dégradé_sans_nom_35" x1="1.21" y1="23.98" x2="47.28" y2="23.98" gradientUnits="userSpaceOnUse"><stop offset="0" stop-color="#f16c76"/><stop offset=".12" stop-color="#f5826b"/><stop offset=".28" stop-color="#f99662"/><stop offset=".45" stop-color="#fca45b"/><stop offset=".66" stop-color="#fead57"/><stop offset="1" stop-color="#ffb056"/></linearGradient></defs><g id="Calque_1-2"><path class="cls-1" d="M2.52,57.09l-2.52,7.16h1.38l.59-1.77h2.69l.59,1.77h1.38l-2.52-7.16h-1.6ZM2.33,61.44l.97-2.88h.06l.97,2.88h-1.99Z"/><path class="cls-1" d="M11.68,60.84c-.2-.16-.42-.3-.67-.41-.25-.11-.51-.19-.78-.26l-.67-.17c-.15-.04-.29-.08-.44-.13-.14-.05-.28-.11-.4-.19-.12-.08-.21-.17-.28-.28-.07-.11-.1-.24-.1-.39,0-.18.05-.34.16-.48.1-.14.25-.25.44-.33.19-.08.43-.12.7-.12.38,0,.7.08.94.25.24.17.38.41.41.71h1.25c0-.4-.12-.76-.34-1.07-.22-.31-.52-.55-.9-.73-.38-.18-.83-.26-1.34-.26s-.95.09-1.35.26c-.4.18-.71.42-.94.74s-.34.69-.34,1.11c0,.51.17.92.51,1.23.34.31.81.54,1.4.69l.81.21c.26.07.48.14.67.22.19.08.34.19.45.31.11.12.16.28.16.46,0,.21-.06.38-.19.54-.12.15-.29.27-.5.36-.21.09-.46.13-.74.13s-.51-.04-.73-.12c-.22-.08-.39-.21-.53-.37-.14-.17-.21-.37-.23-.62h-1.28c.02.48.14.88.37,1.21.23.33.55.58.96.76.41.17.89.26,1.45.26s1.06-.09,1.47-.27c.4-.18.71-.43.93-.74.21-.32.32-.69.32-1.11,0-.31-.06-.58-.17-.81-.12-.23-.27-.43-.47-.59Z"/><path class="cls-1" d="M17.69,60.84c-.2-.16-.42-.3-.67-.41-.25-.11-.51-.19-.78-.26l-.67-.17c-.15-.04-.29-.08-.44-.13-.14-.05-.28-.11-.4-.19-.12-.08-.21-.17-.28-.28-.07-.11-.1-.24-.1-.39,0-.18.05-.34.16-.48.1-.14.25-.25.44-.33.19-.08.43-.12.7-.12.38,0,.7.08.94.25.24.17.38.41.41.71h1.25c0-.4-.12-.76-.34-1.07-.22-.31-.52-.55-.9-.73-.38-.18-.83-.26-1.34-.26s-.95.09-1.35.26c-.4.18-.71.42-.94.74-.23.32-.34.69-.34,1.11,0,.51.17.92.51,1.23.34.31.81.54,1.4.69l.81.21c.26.07.48.14.67.22.19.08.34.19.45.31.11.12.16.28.16.46,0,.21-.06.38-.19.54-.12.15-.29.27-.5.36-.21.09-.46.13-.74.13s-.51-.04-.73-.12c-.22-.08-.39-.21-.53-.37-.14-.17-.21-.37-.23-.62h-1.28c.02.48.14.88.37,1.21.23.33.55.58.96.76.41.17.89.26,1.45.26s1.06-.09,1.47-.27c.4-.18.71-.43.93-.74.21-.32.32-.69.32-1.11,0-.31-.06-.58-.17-.81-.12-.23-.27-.43-.47-.59Z"/><path class="cls-1" d="M23.9,57.43c-.5-.29-1.06-.44-1.68-.44s-1.19.15-1.68.44c-.5.29-.89.71-1.17,1.26-.29.55-.43,1.21-.43,1.98s.14,1.43.43,1.98c.29.55.68.97,1.17,1.26.5.29,1.06.44,1.68.44s1.19-.15,1.68-.44c.5-.29.89-.71,1.17-1.26.29-.55.43-1.21.43-1.98s-.14-1.43-.43-1.98c-.29-.55-.68-.97-1.17-1.26ZM23.95,62.05c-.17.37-.4.66-.7.85-.3.19-.64.29-1.03.29s-.73-.1-1.03-.29c-.3-.19-.53-.48-.7-.85-.17-.37-.25-.83-.25-1.38s.08-1,.25-1.38c.17-.37.4-.66.7-.85.3-.19.64-.29,1.03-.29s.73.1,1.03.29c.3.19.53.48.7.85.17.37.25.83.25,1.38s-.08,1-.25,1.38Z"/><path class="cls-1" d="M28.44,58.45c.3-.19.65-.29,1.03-.29.22,0,.42.03.61.09s.36.15.51.26c.15.12.27.26.37.42.1.17.17.36.21.57h1.31c-.05-.4-.17-.75-.34-1.06s-.39-.57-.66-.79c-.27-.22-.57-.38-.92-.49-.34-.11-.71-.17-1.11-.17-.62,0-1.18.15-1.68.44-.49.29-.88.71-1.17,1.26-.29.55-.43,1.21-.43,1.98s.14,1.43.43,1.98c.28.55.67.97,1.17,1.26.49.29,1.06.44,1.69.44.43,0,.81-.06,1.16-.19.35-.13.66-.3.92-.53.26-.23.47-.49.63-.79.16-.3.27-.62.32-.96h-1.31c-.04.2-.11.39-.21.55-.1.16-.23.3-.38.41-.15.11-.32.2-.51.25-.19.06-.39.09-.6.09-.39,0-.73-.1-1.03-.28-.3-.19-.53-.47-.71-.85-.17-.37-.26-.83-.26-1.38s.09-.99.26-1.37c.17-.37.41-.66.71-.85Z"/><rect class="cls-1" x="33.29" y="57.09" width="1.3" height="7.16"/><path class="cls-1" d="M37.67,57.09l-2.52,7.16h1.38l.59-1.77h2.69l.59,1.77h1.38l-2.52-7.16h-1.6ZM37.47,61.44l.97-2.88h.06l.97,2.88h-1.99Z"/><polygon class="cls-1" points="41.17 58.18 43.38 58.18 43.38 64.25 44.67 64.25 44.67 58.18 46.88 58.18 46.88 57.09 41.17 57.09 41.17 58.18"/><rect class="cls-1" x="47.6" y="57.09" width="1.3" height="7.16"/><path class="cls-1" d="M54.71,57.43c-.5-.29-1.06-.44-1.68-.44s-1.19.15-1.68.44c-.5.29-.89.71-1.17,1.26-.29.55-.43,1.21-.43,1.98s.14,1.43.43,1.98c.29.55.68.97,1.17,1.26.5.29,1.06.44,1.68.44s1.19-.15,1.68-.44c.5-.29.89-.71,1.17-1.26.29-.55.43-1.21.43-1.98s-.14-1.43-.43-1.98c-.29-.55-.68-.97-1.17-1.26ZM54.76,62.05c-.17.37-.4.66-.7.85-.3.19-.64.29-1.03.29s-.73-.1-1.03-.29c-.3-.19-.53-.48-.7-.85-.17-.37-.25-.83-.25-1.38s.08-1,.25-1.38c.17-.37.4-.66.7-.85.3-.19.64-.29,1.03-.29s.73.1,1.03.29c.3.19.53.48.7.85.17.37.25.83.25,1.38s-.08,1-.25,1.38Z"/><polygon class="cls-1" points="61.76 61.97 61.69 61.97 58.32 57.09 57.16 57.09 57.16 64.25 58.46 64.25 58.46 59.37 58.52 59.37 61.89 64.25 63.05 64.25 63.05 57.09 61.76 57.09 61.76 61.97"/><path class="cls-1" d="M68.22,58.45c.3-.19.65-.29,1.03-.29.22,0,.42.03.61.09.19.06.36.15.51.26.15.12.27.26.37.42.1.17.17.36.21.57h1.31c-.05-.4-.17-.75-.34-1.06s-.39-.57-.66-.79c-.27-.22-.57-.38-.92-.49-.34-.11-.71-.17-1.11-.17-.62,0-1.18.15-1.68.44-.49.29-.88.71-1.17,1.26-.29.55-.43,1.21-.43,1.98s.14,1.43.43,1.98c.28.55.67.97,1.17,1.26.49.29,1.06.44,1.69.44.43,0,.81-.06,1.16-.19.35-.13.65-.3.92-.53.26-.23.47-.49.63-.79.16-.3.27-.62.32-.96h-1.31c-.04.2-.11.39-.21.55-.1.16-.23.3-.38.41-.15.11-.32.2-.51.25-.19.06-.39.09-.6.09-.39,0-.73-.1-1.03-.28-.3-.19-.53-.47-.71-.85-.17-.37-.26-.83-.26-1.38s.09-.99.26-1.37c.17-.37.41-.66.71-.85Z"/><polygon class="cls-1" points="77.58 60.12 74.26 60.12 74.26 57.09 72.96 57.09 72.96 64.25 74.26 64.25 74.26 61.21 77.58 61.21 77.58 64.25 78.88 64.25 78.88 57.09 77.58 57.09 77.58 60.12"/><rect class="cls-1" x="79.79" y="57.09" width="1.3" height="7.16"/><path class="cls-1" d="M86.07,61.36c.38-.18.66-.44.86-.78.19-.34.29-.73.29-1.19s-.1-.86-.29-1.2c-.19-.34-.48-.61-.85-.8-.37-.19-.84-.29-1.39-.29h-2.69v7.16h1.3v-2.62h1.32l1.41,2.62h1.45l-1.56-2.85s.1-.03.14-.05ZM83.3,58.18h1.19c.32,0,.59.05.79.14.21.09.36.23.46.41.1.18.15.4.15.65s-.05.47-.15.64c-.1.17-.25.31-.46.4-.21.09-.47.13-.79.13h-1.2v-2.38Z"/><path class="cls-1" d="M92.43,61.66c0,.3-.07.56-.2.8-.13.23-.32.42-.56.55-.24.13-.53.2-.85.2s-.61-.07-.85-.2c-.24-.13-.43-.31-.56-.55-.13-.23-.2-.5-.2-.8v-4.57h-1.3v4.68c0,.51.12.96.36,1.35.24.39.58.69,1.01.91.44.22.95.33,1.53.33s1.09-.11,1.53-.33c.44-.22.77-.52,1.02-.91.24-.39.36-.84.36-1.35v-4.68h-1.3v4.57Z"/><path class="cls-1" d="M98.71,61.36c.38-.18.66-.44.86-.78.19-.34.29-.73.29-1.19s-.1-.86-.29-1.2c-.19-.34-.48-.61-.85-.8-.37-.19-.84-.29-1.39-.29h-2.69v7.16h1.3v-2.62h1.32l1.41,2.62h1.45l-1.56-2.85s.1-.03.14-.05ZM95.95,58.18h1.19c.32,0,.59.05.79.14.21.09.36.23.46.41.1.18.15.4.15.65s-.05.47-.15.64c-.1.17-.25.31-.46.4-.21.09-.47.13-.79.13h-1.2v-2.38Z"/><path class="cls-1" d="M103.83,61.52h1.65c0,.33-.07.62-.21.86-.14.26-.35.46-.62.6-.27.14-.58.21-.95.21-.4,0-.75-.1-1.06-.29-.3-.19-.54-.48-.71-.85-.17-.38-.26-.83-.26-1.37s.09-.99.26-1.37c.17-.37.41-.66.71-.85.3-.19.64-.29,1.03-.29.21,0,.41.03.59.08.18.05.34.14.48.24.14.11.26.24.36.39.1.15.18.32.24.51h1.32c-.05-.35-.17-.67-.34-.97s-.39-.54-.66-.76c-.27-.21-.57-.38-.91-.49-.34-.12-.71-.17-1.11-.17-.47,0-.9.08-1.3.25-.4.17-.75.41-1.04.73-.3.32-.53.7-.69,1.16-.16.45-.25.97-.25,1.55,0,.76.14,1.41.42,1.96.28.55.67.97,1.16,1.27.5.3,1.08.45,1.74.45.59,0,1.12-.12,1.57-.36.46-.24.82-.59,1.08-1.03.26-.45.39-.98.39-1.59v-.86h-2.91v1.01Z"/><rect class="cls-1" x="107.5" y="57.09" width="1.3" height="7.16"/><polygon class="cls-1" points="111.01 61.21 114.13 61.21 114.13 60.12 111.01 60.12 111.01 58.18 114.37 58.18 114.37 57.09 109.72 57.09 109.72 64.25 114.4 64.25 114.4 63.16 111.01 63.16 111.01 61.21"/><rect class="cls-1" x="117.16" y="57.09" width="1.3" height="7.16"/><polygon class="cls-1" points="123.96 61.97 123.9 61.97 120.53 57.09 119.37 57.09 119.37 64.25 120.67 64.25 120.67 59.37 120.73 59.37 124.1 64.25 125.25 64.25 125.25 57.09 123.96 57.09 123.96 61.97"/><polygon class="cls-1" points="130.44 60.12 127.47 60.12 127.47 58.18 130.76 58.18 130.76 57.09 126.17 57.09 126.17 64.25 127.47 64.25 127.47 61.21 130.44 61.21 130.44 60.12"/><path class="cls-1" d="M132.6,57.09l-2.52,7.16h1.38l.59-1.77h2.69l.59,1.77h1.38l-2.52-7.16h-1.6ZM132.41,61.44l.97-2.88h.06l.97,2.88h-1.99Z"/><polygon class="cls-1" points="141.78 61.97 141.71 61.97 138.34 57.09 137.18 57.09 137.18 64.25 138.48 64.25 138.48 59.37 138.54 59.37 141.91 64.25 143.07 64.25 143.07 57.09 141.78 57.09 141.78 61.97"/><polygon class="cls-1" points="143.67 58.18 145.88 58.18 145.88 64.25 147.17 64.25 147.17 58.18 149.38 58.18 149.38 57.09 143.67 57.09 143.67 58.18"/><rect class="cls-1" x="149.99" y="57.09" width="1.3" height="7.16"/><polygon class="cls-1" points="153.5 57.09 152.2 57.09 152.2 64.25 156.65 64.25 156.65 63.16 153.5 63.16 153.5 57.09"/><polygon class="cls-1" points="158.58 61.21 161.7 61.21 161.7 60.12 158.58 60.12 158.58 58.18 161.94 58.18 161.94 57.09 157.28 57.09 157.28 64.25 161.96 64.25 161.96 63.16 158.58 63.16 158.58 61.21"/><rect class="cls-1" x="164.72" y="57.09" width="1.3" height="7.16"/><polygon class="cls-1" points="167.74 57.09 166.44 57.09 166.44 64.25 170.89 64.25 170.89 63.16 167.74 63.16 167.74 57.09"/><polygon class="cls-1" points="172.33 61.21 175.45 61.21 175.45 60.12 172.33 60.12 172.33 58.18 175.69 58.18 175.69 57.09 171.03 57.09 171.03 64.25 175.72 64.25 175.72 63.16 172.33 63.16 172.33 61.21"/><rect class="cls-1" x="176" y="60.15" width="3.22" height="1.04"/><path class="cls-1" d="M183.94,57.52c-.51-.29-1.12-.43-1.83-.43h-2.48v7.16h2.43c.73,0,1.35-.14,1.87-.43.52-.29.92-.7,1.19-1.23.28-.54.41-1.18.41-1.92s-.14-1.38-.41-1.92c-.28-.53-.67-.94-1.18-1.23ZM183.99,62.03c-.17.36-.42.64-.75.82-.33.18-.75.27-1.25.27h-1.07v-4.92h1.1c.48,0,.89.09,1.22.27.33.18.57.45.74.81.17.36.25.82.25,1.37s-.08,1-.25,1.37Z"/><polygon class="cls-1" points="187.07 61.21 190.19 61.21 190.19 60.12 187.07 60.12 187.07 58.18 190.43 58.18 190.43 57.09 185.78 57.09 185.78 64.25 190.46 64.25 190.46 63.16 187.07 63.16 187.07 61.21"/><rect class="cls-1" x="190.75" y="60.15" width="3.22" height="1.04"/><polygon class="cls-1" points="194.38 64.25 195.67 64.25 195.67 61.21 198.65 61.21 198.65 60.12 195.67 60.12 195.67 58.18 198.96 58.18 198.96 57.09 194.38 57.09 194.38 64.25"/><path class="cls-1" d="M215.31,61.97h-.06l-3.37-4.88h-1.16v7.04l-2.48-7.04h-1.6l-2.32,6.59-1.24-2.28s.1-.03.14-.05c.38-.18.66-.44.86-.78.19-.34.29-.73.29-1.19s-.1-.86-.29-1.2c-.19-.34-.48-.61-.85-.8-.37-.19-.84-.29-1.39-.29h-2.69v7.16h1.3v-2.62h1.32l1.41,2.62h2.32l.59-1.77h2.69l.59,1.77h2.64v-4.88h.06l3.37,4.88h1.15v-7.16h-1.29v4.88ZM200.45,58.18h1.19c.32,0,.59.05.79.14.21.09.36.23.46.41.1.18.15.4.15.65s-.05.47-.15.64c-.1.17-.25.31-.46.4-.21.09-.47.13-.79.13h-1.2v-2.38ZM206.44,61.44l.97-2.88h.06l.97,2.88h-1.99Z"/><path class="cls-1" d="M219.11,58.45c.3-.19.65-.29,1.03-.29.22,0,.42.03.61.09.19.06.36.15.51.26.15.12.27.26.37.42.1.17.17.36.21.57h1.31c-.05-.4-.17-.75-.34-1.06s-.39-.57-.66-.79c-.27-.22-.57-.38-.92-.49-.34-.11-.71-.17-1.11-.17-.62,0-1.18.15-1.68.44-.49.29-.88.71-1.17,1.26-.29.55-.43,1.21-.43,1.98s.14,1.43.43,1.98c.28.55.67.97,1.17,1.26.49.29,1.06.44,1.69.44.43,0,.81-.06,1.16-.19.35-.13.65-.3.92-.53.26-.23.47-.49.63-.79.16-.3.27-.62.32-.96h-1.31c-.04.2-.11.39-.21.55-.1.16-.23.3-.38.41-.15.11-.32.2-.51.25-.19.06-.39.09-.6.09-.39,0-.73-.1-1.03-.28-.3-.19-.53-.47-.71-.85-.17-.37-.26-.83-.26-1.38s.09-.99.26-1.37c.17-.37.41-.66.71-.85Z"/><polygon class="cls-1" points="224.66 63.16 224.66 61.21 227.78 61.21 227.78 60.12 224.66 60.12 224.66 58.18 228.02 58.18 228.02 57.09 223.36 57.09 223.36 64.25 228.05 64.25 228.05 63.16 224.66 63.16"/><rect class="cls-6" x="54.53" y="70.82" width="117.63" height="11.57" rx=".62" ry=".62"/><path class="cls-5" d="M57.01,79.17s-.03-.04-.03-.07v-5.29s.01-.05.03-.07c.02-.02.04-.03.07-.03h1.91c.37,0,.7.06.98.2.28.13.5.32.65.56.15.24.23.53.23.85v2.27c0,.32-.08.61-.23.85-.15.24-.37.43-.65.56-.28.13-.61.2-.98.2h-1.91s-.05,0-.07-.03ZM57.93,78.41h1.1c.28,0,.5-.09.66-.26s.25-.41.25-.7v-1.98c0-.3-.08-.53-.25-.71s-.39-.26-.67-.26h-1.09s-.04.01-.04.04v3.84s.01.04.04.04Z"/><path class="cls-5" d="M61.66,79.17s-.03-.04-.03-.07v-5.29s.01-.05.03-.07c.02-.02.04-.03.07-.03h.72s.05,0,.07.03c.02.02.03.04.03.07v5.29s0,.05-.03.07c-.02.02-.04.03-.07.03h-.72s-.05,0-.07-.03Z"/><path class="cls-5" d="M64.19,79.06c-.3-.13-.54-.31-.7-.55-.16-.24-.25-.51-.25-.83v-.2s0-.05.03-.07.04-.03.07-.03h.7s.05,0,.07.03c.02.02.03.04.03.07v.15c0,.24.11.44.32.6.21.16.51.24.88.24.32,0,.56-.07.72-.2s.24-.31.24-.52c0-.15-.04-.27-.13-.37-.09-.1-.21-.19-.38-.28s-.41-.19-.74-.31c-.37-.14-.67-.26-.9-.38-.23-.12-.42-.28-.58-.49s-.23-.46-.23-.77c0-.46.17-.82.5-1.09.33-.27.78-.4,1.34-.4.39,0,.74.07,1.04.2.3.14.54.32.7.57.17.24.25.52.25.84v.13s0,.05-.03.07c-.02.02-.04.03-.07.03h-.71s-.05,0-.07-.03c-.02-.02-.03-.04-.03-.07v-.09c0-.25-.1-.45-.3-.62s-.48-.26-.83-.26c-.29,0-.51.06-.67.18-.16.12-.24.29-.24.51,0,.16.04.29.13.38.08.1.21.19.37.27s.43.18.78.31c.37.14.67.27.89.38.22.12.41.28.57.48.16.21.24.46.24.77,0,.47-.17.84-.52,1.12s-.82.41-1.42.41c-.41,0-.76-.06-1.07-.19Z"/><path class="cls-5" d="M70.99,73.91c.25.14.45.33.58.58.14.25.21.53.21.86s-.07.6-.21.85-.34.43-.6.57c-.26.13-.56.2-.9.2h-1.25s-.04.01-.04.04v2.11s-.01.05-.03.07c-.02.02-.04.03-.07.03h-.72s-.05,0-.07-.03c-.02-.02-.03-.04-.03-.07v-5.3s0-.05.03-.07c.02-.02.04-.03.07-.03h2.15c.33,0,.62.07.87.2ZM70.63,75.99c.16-.16.24-.36.24-.62s-.08-.47-.24-.63-.37-.24-.64-.24h-1.17s-.04.01-.04.04v1.65s.01.04.04.04h1.17c.27,0,.48-.08.64-.24Z"/><path class="cls-5" d="M73.2,79.04c-.3-.16-.54-.39-.7-.68s-.25-.63-.25-1.01v-1.79c0-.37.08-.71.25-1s.4-.51.7-.67.65-.24,1.04-.24.75.08,1.05.24.53.38.7.67.25.62.25,1v1.79c0,.38-.08.72-.25,1.01s-.4.52-.7.68c-.3.16-.65.24-1.05.24s-.74-.08-1.04-.24ZM75.03,78.18c.2-.2.3-.47.3-.81v-1.82c0-.34-.1-.61-.3-.81-.2-.2-.46-.31-.79-.31s-.58.1-.78.31c-.2.2-.3.48-.3.81v1.82c0,.33.1.6.3.81.2.2.46.31.78.31s.59-.1.79-.31Z"/><path class="cls-5" d="M77.75,79.06c-.3-.13-.54-.31-.7-.55-.16-.24-.25-.51-.25-.83v-.2s0-.05.03-.07.04-.03.07-.03h.7s.05,0,.07.03c.02.02.03.04.03.07v.15c0,.24.11.44.32.6.21.16.51.24.88.24.32,0,.56-.07.72-.2s.24-.31.24-.52c0-.15-.04-.27-.13-.37-.09-.1-.21-.19-.38-.28s-.41-.19-.74-.31c-.37-.14-.67-.26-.9-.38-.23-.12-.42-.28-.58-.49s-.23-.46-.23-.77c0-.46.17-.82.5-1.09.33-.27.78-.4,1.34-.4.39,0,.74.07,1.04.2.3.14.54.32.7.57.17.24.25.52.25.84v.13s0,.05-.03.07c-.02.02-.04.03-.07.03h-.71s-.05,0-.07-.03c-.02-.02-.03-.04-.03-.07v-.09c0-.25-.1-.45-.3-.62s-.48-.26-.83-.26c-.29,0-.51.06-.67.18-.16.12-.24.29-.24.51,0,.16.04.29.13.38.08.1.21.19.37.27s.43.18.78.31c.37.14.67.27.89.38.22.12.41.28.57.48.16.21.24.46.24.77,0,.47-.17.84-.52,1.12s-.82.41-1.42.41c-.41,0-.76-.06-1.07-.19Z"/><path class="cls-5" d="M81.51,79.17s-.03-.04-.03-.07v-5.29s.01-.05.03-.07c.02-.02.04-.03.07-.03h.72s.05,0,.07.03c.02.02.03.04.03.07v5.29s0,.05-.03.07c-.02.02-.04.03-.07.03h-.72s-.05,0-.07-.03Z"/><path class="cls-5" d="M87,73.74s.03.04.03.07v.6s0,.05-.03.07c-.02.02-.04.03-.07.03h-1.44s-.04.01-.04.04v4.56s0,.05-.03.07-.04.03-.07.03h-.72s-.05,0-.07-.03-.03-.04-.03-.07v-4.56s-.01-.04-.04-.04h-1.39s-.05,0-.07-.03c-.02-.02-.03-.04-.03-.07v-.6s0-.05.03-.07c.02-.02.04-.03.07-.03h3.81s.05,0,.07.03Z"/><path class="cls-5" d="M87.7,79.17s-.03-.04-.03-.07v-5.29s.01-.05.03-.07c.02-.02.04-.03.07-.03h.72s.05,0,.07.03c.02.02.03.04.03.07v5.29s0,.05-.03.07c-.02.02-.04.03-.07.03h-.72s-.05,0-.07-.03Z"/><path class="cls-5" d="M93.21,74.47s-.04.03-.07.03h-2.66s-.04.01-.04.04v1.46s.01.04.04.04h1.79s.05,0,.07.03c.02.02.03.04.03.07v.59s0,.05-.03.07c-.02.02-.04.03-.07.03h-1.79s-.04.01-.04.04v2.24s0,.05-.03.07c-.02.02-.04.03-.07.03h-.72s-.05,0-.07-.03c-.02-.02-.03-.04-.03-.07v-5.29s.01-.05.03-.07c.02-.02.04-.03.07-.03h3.52s.05,0,.07.03.03.04.03.07v.6s0,.05-.03.07Z"/><path class="cls-5" d="M95.82,79.06c-.3-.13-.54-.31-.7-.55-.16-.24-.25-.51-.25-.83v-.2s0-.05.03-.07.04-.03.07-.03h.7s.05,0,.07.03c.02.02.03.04.03.07v.15c0,.24.11.44.32.6.21.16.51.24.88.24.32,0,.56-.07.72-.2s.24-.31.24-.52c0-.15-.04-.27-.13-.37-.09-.1-.21-.19-.38-.28s-.41-.19-.74-.31c-.37-.14-.67-.26-.9-.38-.23-.12-.42-.28-.58-.49s-.23-.46-.23-.77c0-.46.17-.82.5-1.09.33-.27.78-.4,1.34-.4.39,0,.74.07,1.04.2.3.14.54.32.7.57.17.24.25.52.25.84v.13s0,.05-.03.07c-.02.02-.04.03-.07.03h-.71s-.05,0-.07-.03c-.02-.02-.03-.04-.03-.07v-.09c0-.25-.1-.45-.3-.62s-.48-.26-.83-.26c-.29,0-.51.06-.67.18-.16.12-.24.29-.24.51,0,.16.04.29.13.38.08.1.21.19.37.27s.43.18.78.31c.37.14.67.27.89.38.22.12.41.28.57.48.16.21.24.46.24.77,0,.47-.17.84-.52,1.12s-.82.41-1.42.41c-.41,0-.76-.06-1.07-.19Z"/><path class="cls-5" d="M102.62,73.91c.25.14.45.33.58.58.14.25.21.53.21.86s-.07.6-.21.85-.34.43-.6.57c-.26.13-.56.2-.9.2h-1.25s-.04.01-.04.04v2.11s-.01.05-.03.07c-.02.02-.04.03-.07.03h-.72s-.05,0-.07-.03c-.02-.02-.03-.04-.03-.07v-5.3s0-.05.03-.07c.02-.02.04-.03.07-.03h2.15c.33,0,.62.07.87.2ZM102.26,75.99c.16-.16.24-.36.24-.62s-.08-.47-.24-.63-.37-.24-.64-.24h-1.17s-.04.01-.04.04v1.65s.01.04.04.04h1.17c.27,0,.48-.08.64-.24Z"/><path class="cls-5" d="M107.69,74.47s-.04.03-.07.03h-2.67s-.04.01-.04.04v1.46s.01.04.04.04h1.79s.05,0,.07.03c.02.02.03.04.03.07v.59s0,.05-.03.07c-.02.02-.04.03-.07.03h-1.79s-.04.01-.04.04v1.51s.01.04.04.04h2.67s.05,0,.07.03c.02.02.03.04.03.07v.6s0,.05-.03.07c-.02.02-.04.03-.07.03h-3.52s-.05,0-.07-.03c-.02-.02-.03-.04-.03-.07v-5.29s.01-.05.03-.07c.02-.02.04-.03.07-.03h3.52s.05,0,.07.03c.02.02.03.04.03.07v.6s0,.05-.03.07ZM105.4,73.18s0-.05,0-.08l.43-.81s.06-.06.12-.06h.62s.06.01.07.03,0,.05-.01.08l-.54.8s-.06.06-.11.06h-.52s-.06-.01-.07-.03Z"/><path class="cls-5" d="M109.25,79.03c-.3-.15-.53-.37-.69-.65-.16-.28-.24-.6-.24-.96v-1.93c0-.36.08-.69.24-.96.16-.28.39-.49.69-.64.3-.15.64-.23,1.03-.23s.73.07,1.03.22c.3.15.53.35.69.62.16.27.24.58.24.92,0,.03-.01.05-.03.07-.02.02-.04.03-.07.03l-.72.04c-.06,0-.09-.03-.09-.09,0-.31-.1-.56-.29-.74-.19-.19-.45-.28-.76-.28s-.57.1-.77.28-.29.44-.29.74v2c0,.3.1.55.29.74s.45.28.77.28.57-.09.76-.28c.19-.19.29-.43.29-.74,0-.06.03-.09.09-.09l.72.03s.05,0,.07.02c.02.02.03.03.03.05,0,.35-.08.67-.24.94-.16.27-.39.48-.69.62-.3.15-.64.22-1.03.22s-.74-.08-1.03-.23Z"/><path class="cls-5" d="M113.04,79.17s-.03-.04-.03-.07v-5.29s.01-.05.03-.07c.02-.02.04-.03.07-.03h.72s.05,0,.07.03c.02.02.03.04.03.07v5.29s0,.05-.03.07c-.02.02-.04.03-.07.03h-.72s-.05,0-.07-.03Z"/><path class="cls-5" d="M118.55,74.47s-.04.03-.07.03h-2.66s-.04.01-.04.04v1.46s.01.04.04.04h1.79s.05,0,.07.03c.02.02.03.04.03.07v.59s0,.05-.03.07c-.02.02-.04.03-.07.03h-1.79s-.04.01-.04.04v2.24s0,.05-.03.07c-.02.02-.04.03-.07.03h-.72s-.05,0-.07-.03c-.02-.02-.03-.04-.03-.07v-5.29s.01-.05.03-.07c.02-.02.04-.03.07-.03h3.52s.05,0,.07.03.03.04.03.07v.6s0,.05-.03.07Z"/><path class="cls-5" d="M119.11,79.17s-.03-.04-.03-.07v-5.29s.01-.05.03-.07c.02-.02.04-.03.07-.03h.72s.05,0,.07.03c.02.02.03.04.03.07v5.29s0,.05-.03.07c-.02.02-.04.03-.07.03h-.72s-.05,0-.07-.03Z"/><path class="cls-5" d="M123.67,73.89c.29.16.52.38.68.67s.24.62.24,1v1.88c0,.46-.13.85-.39,1.17-.26.32-.61.52-1.05.61-.02,0-.03.02-.03.05v.66s0,.05-.03.07c-.02.02-.04.03-.07.03h-.72s-.05-.01-.07-.03c-.02-.02-.03-.04-.03-.07v-.66s-.01-.04-.04-.05c-.44-.09-.79-.29-1.05-.61-.26-.32-.39-.71-.39-1.17v-1.88c0-.38.08-.71.24-1,.16-.29.39-.51.68-.67.29-.16.63-.24,1.01-.24s.72.08,1.01.24ZM123.69,75.5c0-.32-.09-.58-.28-.77s-.44-.29-.74-.29-.55.1-.74.29c-.19.2-.28.45-.28.77v1.91c0,.32.09.58.28.77.19.2.43.29.74.29s.56-.1.74-.29.28-.45.28-.77v-1.91Z"/><path class="cls-5" d="M126.23,79.03c-.3-.15-.53-.37-.69-.65s-.25-.6-.25-.97v-3.61s0-.05.03-.07c.02-.02.04-.03.07-.03h.72s.05,0,.07.03c.02.02.03.04.03.07v3.63c0,.31.1.56.29.75.19.19.45.29.77.29s.57-.1.77-.29c.19-.19.29-.44.29-.75v-3.63s0-.05.03-.07.04-.03.07-.03h.72s.05,0,.07.03c.02.02.03.04.03.07v3.61c0,.37-.08.69-.24.97-.16.28-.39.49-.69.65-.3.15-.64.23-1.03.23s-.73-.07-1.03-.23Z"/><path class="cls-5" d="M133.81,74.47s-.04.03-.07.03h-2.67s-.04.01-.04.04v1.46s.01.04.04.04h1.79s.05,0,.07.03c.02.02.03.04.03.07v.59s0,.05-.03.07c-.02.02-.04.03-.07.03h-1.79s-.04.01-.04.04v1.51s.01.04.04.04h2.67s.05,0,.07.03c.02.02.03.04.03.07v.6s0,.05-.03.07c-.02.02-.04.03-.07.03h-3.52s-.05,0-.07-.03c-.02-.02-.03-.04-.03-.07v-5.29s.01-.05.03-.07c.02-.02.04-.03.07-.03h3.52s.05,0,.07.03c.02.02.03.04.03.07v.6s0,.05-.03.07Z"/><path class="cls-5" d="M138.9,79.12l-1.03-2.26s-.03-.03-.05-.03h-.94s-.04.01-.04.04v2.22s0,.05-.03.07c-.02.02-.04.03-.07.03h-.72s-.05,0-.07-.03c-.02-.02-.03-.04-.03-.07v-5.29s.01-.05.03-.07c.02-.02.04-.03.07-.03h2.15c.32,0,.6.07.85.2.25.13.44.32.57.56.14.24.2.52.2.83,0,.36-.09.67-.28.92-.18.25-.44.43-.77.53-.01,0-.02,0-.02.02s0,.02,0,.03l1.1,2.28s.02.04.02.05c0,.04-.03.06-.09.06h-.75c-.05,0-.09-.02-.11-.07ZM136.84,74.54v1.56s.01.04.04.04h1.18c.25,0,.45-.07.61-.22s.23-.35.23-.59-.08-.44-.23-.6-.36-.23-.61-.23h-1.18s-.04.01-.04.04Z"/><path class="cls-5" d="M144.23,74.47s-.04.03-.07.03h-2.67s-.04.01-.04.04v1.46s.01.04.04.04h1.79s.05,0,.07.03c.02.02.03.04.03.07v.59s0,.05-.03.07c-.02.02-.04.03-.07.03h-1.79s-.04.01-.04.04v1.51s.01.04.04.04h2.67s.05,0,.07.03c.02.02.03.04.03.07v.6s0,.05-.03.07c-.02.02-.04.03-.07.03h-3.52s-.05,0-.07-.03c-.02-.02-.03-.04-.03-.07v-5.29s.01-.05.03-.07c.02-.02.04-.03.07-.03h3.52s.05,0,.07.03c.02.02.03.04.03.07v.6s0,.05-.03.07ZM141.94,73.18s0-.05,0-.08l.43-.81s.06-.06.12-.06h.62s.06.01.07.03,0,.05-.01.08l-.54.8s-.06.06-.11.06h-.52s-.06-.01-.07-.03Z"/><path class="cls-5" d="M145.78,79.03c-.3-.15-.53-.37-.69-.65-.16-.28-.24-.61-.24-.97v-1.89c0-.37.08-.7.24-.97.16-.28.39-.5.69-.65.3-.15.64-.23,1.03-.23s.73.08,1.02.23c.29.15.52.36.68.62s.24.56.24.88v.06s0,.05-.03.07-.04.03-.07.03h-.71s-.05,0-.07-.03c-.02-.02-.03-.04-.03-.07v-.04c0-.28-.1-.51-.29-.7-.19-.18-.45-.27-.76-.27s-.57.1-.77.29-.29.44-.29.76v1.96c0,.31.1.57.31.76s.47.29.79.29.56-.08.74-.25.27-.39.27-.68v-.49s-.01-.04-.04-.04h-.96s-.05,0-.07-.03c-.02-.02-.03-.04-.03-.07v-.58s0-.05.03-.07c.02-.02.04-.03.07-.03h1.81s.05,0,.07.03c.02.02.03.04.03.07v1c0,.6-.18,1.07-.53,1.4-.35.33-.83.5-1.42.5-.39,0-.74-.08-1.03-.23Z"/><path class="cls-5" d="M149.61,79.17s-.03-.04-.03-.07v-5.29s.01-.05.03-.07c.02-.02.04-.03.07-.03h.72s.05,0,.07.03c.02.02.03.04.03.07v5.29s0,.05-.03.07c-.02.02-.04.03-.07.03h-.72s-.05,0-.07-.03Z"/><path class="cls-5" d="M152.25,79.04c-.3-.16-.54-.39-.7-.68s-.25-.63-.25-1.01v-1.79c0-.37.08-.71.25-1s.4-.51.7-.67.65-.24,1.04-.24.75.08,1.05.24.53.38.7.67.25.62.25,1v1.79c0,.38-.08.72-.25,1.01s-.4.52-.7.68c-.3.16-.65.24-1.05.24s-.74-.08-1.04-.24ZM154.09,78.18c.2-.2.3-.47.3-.81v-1.82c0-.34-.1-.61-.3-.81-.2-.2-.46-.31-.79-.31s-.58.1-.78.31c-.2.2-.3.48-.3.81v1.82c0,.33.1.6.3.81.2.2.46.31.78.31s.59-.1.79-.31Z"/><path class="cls-5" d="M159.32,73.74s.04-.03.07-.03h.72s.05,0,.07.03c.02.02.03.04.03.07v5.29s0,.05-.03.07c-.02.02-.04.03-.07.03h-.7c-.05,0-.09-.02-.11-.06l-2.26-3.7s-.02-.02-.03-.02c-.01,0-.02.01-.02.03l.02,3.65s0,.05-.03.07c-.02.02-.04.03-.07.03h-.72s-.05,0-.07-.03c-.02-.02-.03-.04-.03-.07v-5.29s.01-.05.03-.07c.02-.02.04-.03.07-.03h.7c.05,0,.09.02.11.06l2.25,3.7s.02.02.03.02.02-.01.02-.04v-3.65s0-.05.02-.07Z"/><path class="cls-5" d="M164.45,79.12l-.26-.84s-.02-.03-.04-.03h-2.07s-.03.01-.04.03l-.26.84c-.02.05-.05.08-.1.08h-.78s-.05,0-.07-.03-.02-.05,0-.08l1.7-5.29c.02-.05.05-.08.1-.08h.98c.05,0,.09.03.1.08l1.71,5.29s0,.02,0,.04c0,.05-.03.07-.09.07h-.78c-.05,0-.09-.03-.1-.08ZM162.32,77.54h1.59s.04-.02.03-.05l-.81-2.62s-.01-.03-.02-.03-.02.01-.02.03l-.8,2.62s0,.05.03.05Z"/><path class="cls-5" d="M166.06,79.17s-.03-.04-.03-.07v-5.29s.01-.05.03-.07c.02-.02.04-.03.07-.03h.72s.05,0,.07.03c.02.02.03.04.03.07v4.57s.01.04.04.04h2.62s.05,0,.07.03c.02.02.03.04.03.07v.6s-.01.05-.03.07c-.02.02-.04.03-.07.03h-3.48s-.05,0-.07-.03Z"/><path class="cls-3" d="M92.9,46.79l-3.52-10.79c.93-.22,1.87-.49,2.84-.8.34-.11.53-.48.41-.83l-.91-2.69c-.11-.33-.48-.51-.81-.4-.97.31-1.9.56-2.82.77l-.75-2.3L78.06,1.24c-.13-.36-.4-.53-.8-.53h-4.55c-.4,0-.67.18-.8.53l-7.67,23.63-.09.27c-1.33-1.42-2.21-2.67-2.65-3.35-.19-.29-.56-.38-.86-.22l-2.47,1.39c-.33.18-.43.6-.23.91.67,1.02,2.26,3.25,4.81,5.58l-1.73,5.34-1.42,4.37-2.48,7.63c-.13.49.04.74.53.74h3.61c.4,0,.67-.18.8-.54l4.01-12.84.54-1.69c3.79,2.48,8.8,4.49,15.08,4.49.97,0,1.98-.06,3.01-.16l3.24,10.2c.13.36.4.54.8.54h3.61c.4,0,.6-.16.6-.47l-.07-.27ZM67.91,28.43l.04-.11,6.84-21.45c.04-.09.11-.13.2-.13s.16.04.2.13l7.78,24.43.47,1.46c-6.77.46-11.9-1.73-15.52-4.32Z"/><path class="cls-2" d="M103.31,46.29c-2.36-1.23-4.2-2.97-5.52-5.22-1.32-2.25-1.97-4.85-1.97-7.79V14.89c0-2.9.66-5.46,1.97-7.69,1.31-2.23,3.15-3.96,5.52-5.18,2.36-1.23,4.01-1.84,7.14-1.84s4.77.6,7.14,1.81c2.36,1.2,4.2,2.9,5.52,5.08,1.31,2.19,1.97,4.7,1.97,7.56,0,.22-.07.4-.2.54s-.29.2-.47.2l-3.41.2c-.45,0-.67-.2-.67-.6v-.2c0-3.17-1-5.69-3.01-7.59-2.01-1.89-3.57-2.84-6.87-2.84s-4.86.96-6.87,2.88c-2.01,1.92-3.01,4.44-3.01,7.56v18.73c0,3.12,1,5.64,3.01,7.56,2.01,1.92,3.57,2.88,6.87,2.88s4.86-.95,6.87-2.84c2.01-1.89,3.01-4.42,3.01-7.59v-.13c0-.4.22-.6.67-.6l3.41.2c.45,0,.67.2.67.6,0,2.9-.66,5.45-1.97,7.66-1.31,2.21-3.15,3.91-5.52,5.12-2.36,1.2-4.02,1.81-7.14,1.81s-4.77-.61-7.14-1.84Z"/><path class="cls-2" d="M157.83.71h-3.41c-.37,0-.67.3-.67.67v10.35c-5.69,3.47-11.6,6.66-17.64,9.5V1.38c0-.37-.3-.67-.67-.67h-3.41c-.37,0-.67.3-.67.67v45.48c0,.37.3.67.67.67h3.41c.37,0,.67-.3.67-.67v-21.08c6.02-2.76,11.93-5.85,17.64-9.23v-.4,30.71c0,.37.3.67.67.67h3.41c.37,0,.67-.3.67-.67V1.38c0-.37-.3-.67-.67-.67Z"/><path class="cls-4" d="M167.07,46.85V1.38c0-.45.22-.67.67-.67h3.41c.45,0,.67.22.67.67v45.48c0,.45-.22.67-.67.67h-3.41c-.45,0-.67-.22-.67-.67Z"/><path class="cls-4" d="M181.16,46.85V1.38c0-.45.22-.67.67-.67h3.41c.45,0,.67.22.67.67v41.73c0,.18.09.27.27.27h11.13c.45,0,.67.22.67.67v2.81c0,.45-.22.67-.67.67h-15.48c-.45,0-.67-.22-.67-.67Z"/><path class="cls-4" d="M226.17,4.85h-17.49c-.18,0-.27.09-.27.27v16.52c0,.18.09.27.27.27h9.92c.45,0,.67.22.67.67v2.81c0,.45-.22.67-.67.67h-9.92c-.18,0-.27.09-.27.27v16.79c0,.18.09.27.27.27h17.49c.45,0,.67.22.67.67v2.81c0,.45-.22.67-.67.67h-21.83c-.45,0-.67-.22-.67-.67V1.38c0-.45.22-.67.67-.67h21.83c.45,0,.67.22.67.67v2.81c0,.45-.22.67-.67.67Z"/><path class="cls-4" d="M167.07,46.85V1.38c0-.45.22-.67.67-.67h3.41c.45,0,.67.22.67.67v45.48c0,.45-.22.67-.67.67h-3.41c-.45,0-.67-.22-.67-.67Z"/><path class="cls-7" d="M39.34,12.46h.03c1.62,0,3.17-.64,4.35-1.81,1.19-1.18,1.85-2.74,1.86-4.39,0-1.69-.63-3.26-1.79-4.43C42.62.65,41.05,0,39.37,0h-.02C35.94,0,33.15,2.76,33.13,6.17c-.01,1.67.63,3.24,1.8,4.43,1.18,1.19,2.74,1.85,4.41,1.86ZM39.35,2.31h.01c1.06,0,2.05.41,2.77,1.14.73.73,1.12,1.73,1.12,2.8,0,1.03-.42,2.01-1.17,2.75-.75.74-1.7,1.14-2.74,1.14-1.05,0-2.03-.42-2.77-1.17-.74-.75-1.14-1.74-1.14-2.79.02-2.17,1.73-3.87,3.91-3.87ZM25.1,16.47h.02c1.38,0,2.66-.54,3.61-1.5.96-.96,1.48-2.26,1.47-3.64-.02-2.83-2.24-5.04-5.07-5.04h-.01c-1.38,0-2.67.54-3.63,1.5-.95.96-1.47,2.25-1.47,3.63.02,2.79,2.29,5.06,5.07,5.06ZM23.14,9.4c.52-.52,1.22-.81,1.99-.81h0c1.56,0,2.74,1.18,2.75,2.75h0c0,.77-.28,1.48-.8,2-.52.52-1.22.81-1.98.82h-.01c-1.51,0-2.74-1.24-2.75-2.76,0-.76.28-1.47.8-1.99ZM9.89,12.46h.03c1.62,0,3.17-.64,4.35-1.81,1.19-1.18,1.85-2.74,1.86-4.39,0-1.69-.63-3.26-1.79-4.43C13.17.65,11.6,0,9.92,0,6.5-.03,3.71,2.76,3.68,6.17c-.01,1.67.63,3.24,1.8,4.43,1.18,1.19,2.74,1.85,4.41,1.86ZM9.9,2.31h.01c1.06,0,2.05.41,2.77,1.14.73.73,1.12,1.73,1.12,2.8,0,1.03-.42,2.01-1.17,2.75-.75.74-1.71,1.14-2.74,1.14-1.05,0-2.03-.42-2.77-1.17-.74-.75-1.14-1.74-1.14-2.79.02-2.17,1.74-3.87,3.91-3.87ZM47.06,20.14c-.96-4.97-5.16-6.9-7.24-7.22-5.98-.95-9.55,3.46-11.11,7.03-1.53-1.53-4.18-3.63-7.35-3.52-2.77.1-5.24,1.85-7.33,5.19-.49.78-1.53,2.74-.77,4.24.22.43.78,1.17,2.09,1.26,1.35.09,2.83-.99,4-2.17.19,2.1.74,4.74,2.27,6.4.99,1.08,2.25,1.63,3.74,1.65,1.06,0,1.31.38,1.39.5.59.88.17,3.12-1.25,6.65-.3.75-.53,1.49-.75,2.21-.47,1.54-.88,2.86-1.67,3.18-.53.21-1.7.17-4.22-1.25-4.41-2.48-8.68-6.1-11.41-9.69-3.66-4.8-4.76-9.47-3.27-13.88.84-2.49,2.54-4.36,4.67-5.13,2.01-.73,4.27-.43,6.35.84.54.33,1.26.16,1.59-.38.33-.54.16-1.26-.38-1.59-2.7-1.65-5.66-2.02-8.35-1.04-2.79,1.02-5.01,3.41-6.07,6.57-3.91,11.58,8.06,21.99,15.75,26.32,1.95,1.1,3.52,1.64,4.8,1.64.51,0,.98-.09,1.41-.26,1.82-.73,2.43-2.72,3.02-4.65.21-.68.42-1.37.69-2.03,1.35-3.35,2.4-6.74,1.02-8.8-.46-.69-1.4-1.51-3.29-1.52-.83,0-1.51-.3-2.05-.9-1.75-1.9-1.83-6.35-1.71-7.9.04-.52-.27-1-.77-1.18-.49-.17-1.04,0-1.34.43-1.24,1.78-3.21,3.71-3.99,3.68-.1,0-.17-.02-.2-.03-.05-.23.09-.98.68-1.93,1.67-2.66,3.5-4.04,5.45-4.11.06,0,.11,0,.17,0,3.53,0,6.57,4.09,6.6,4.13.26.36.71.54,1.15.46.44-.08.79-.41.9-.84,0-.02.58-2.16,2.06-4.15,1.88-2.53,4.28-3.59,7.14-3.13.18.03,4.44.78,5.33,5.38,1.02,5.29-1.77,18.82-16.7,24.56-.6.23-.89.9-.66,1.49.23.6.9.89,1.49.66,16.29-6.26,19.28-21.27,18.14-27.16Z"/></g></svg>