<?xml version="1.0" encoding="UTF-8"?><svg id="Calque_2" xmlns="http://www.w3.org/2000/svg" xmlns:xlink="http://www.w3.org/1999/xlink" viewBox="0 0 357.24 48.58"><defs><style>.cls-1{fill:#ffb056;}.cls-1,.cls-2,.cls-3,.cls-4,.cls-5,.cls-6{stroke-width:0px;}.cls-2{fill:#00c490;}.cls-3{fill:#0086c7;}.cls-4{fill:url(#Dégradé_sans_nom_2);}.cls-5{fill:#f16c76;}.cls-6{fill:#fff;}</style><linearGradient id="Dégradé_sans_nom_2" x1="0" y1="24.13" x2="46.36" y2="24.13" gradientUnits="userSpaceOnUse"><stop offset="0" stop-color="#f0616b"/><stop offset=".13" stop-color="#f57a60"/><stop offset=".29" stop-color="#f98e57"/><stop offset=".46" stop-color="#fc9c50"/><stop offset=".67" stop-color="#fea54d"/><stop offset="1" stop-color="#ffa84c"/></linearGradient></defs><g id="Calque_1-2"><path class="cls-4" d="M8.73,12.54h.03c1.63,0,3.19-.65,4.37-1.82,1.2-1.19,1.86-2.76,1.87-4.42,0-1.7-.64-3.28-1.8-4.46C12.03.66,10.46,0,8.76,0,5.32-.03,2.51,2.77,2.48,6.21c-.01,1.68.63,3.26,1.81,4.46,1.18,1.2,2.76,1.87,4.44,1.87ZM8.75,2.33h.01c1.07,0,2.06.41,2.79,1.15.73.74,1.13,1.74,1.13,2.81,0,1.04-.42,2.02-1.18,2.77-.75.75-1.72,1.15-2.75,1.15-1.05,0-2.05-.43-2.79-1.18-.75-.76-1.15-1.75-1.14-2.81.02-2.19,1.75-3.9,3.94-3.9ZM38.37,12.54h.03c1.64,0,3.19-.65,4.37-1.82,1.2-1.19,1.86-2.76,1.87-4.42,0-1.7-.64-3.28-1.8-4.46C41.67.66,40.09,0,38.4,0h-.02C34.96,0,32.15,2.78,32.12,6.2c-.01,1.68.63,3.26,1.81,4.46,1.18,1.2,2.76,1.87,4.44,1.87ZM38.38,2.33h.01c1.07,0,2.06.41,2.79,1.15.73.74,1.13,1.74,1.13,2.81,0,1.04-.42,2.02-1.18,2.77-.75.75-1.71,1.15-2.75,1.15-1.05,0-2.05-.43-2.79-1.18-.75-.76-1.15-1.75-1.14-2.81.02-2.19,1.75-3.9,3.94-3.9ZM24.04,16.57h.02c1.39,0,2.68-.54,3.64-1.51.96-.97,1.49-2.27,1.48-3.67-.02-2.85-2.26-5.08-5.1-5.08h-.01c-1.39,0-2.69.54-3.65,1.51-.96.97-1.48,2.27-1.48,3.66.02,2.81,2.3,5.09,5.1,5.09ZM22.07,9.47c.52-.53,1.23-.82,2-.82h0c1.57,0,2.76,1.19,2.77,2.76h0c0,.77-.28,1.49-.8,2.01-.52.53-1.23.82-1.99.82h-.01c-1.52,0-2.76-1.24-2.77-2.78,0-.77.28-1.48.8-2.01ZM46.15,20.27c-.97-5.01-5.19-6.94-7.28-7.27-6.02-.96-9.61,3.48-11.18,7.07-1.54-1.54-4.21-3.65-7.39-3.54-2.79.1-5.27,1.86-7.38,5.23-.49.78-1.54,2.76-.78,4.27.22.43.79,1.18,2.1,1.27,1.36.09,2.85-.99,4.03-2.18.19,2.11.75,4.77,2.28,6.44,1,1.09,2.26,1.65,3.76,1.66,1.07,0,1.32.38,1.4.5.59.89.17,3.14-1.26,6.69-.3.75-.53,1.5-.76,2.23-.48,1.55-.89,2.88-1.68,3.2-.54.21-1.71.17-4.25-1.26-4.44-2.5-8.73-6.14-11.49-9.75-3.68-4.83-4.79-9.53-3.3-13.97.85-2.5,2.56-4.39,4.7-5.17,2.02-.73,4.3-.44,6.39.85.55.33,1.26.16,1.6-.39.33-.55.16-1.27-.39-1.6-2.71-1.66-5.7-2.03-8.4-1.05-2.81,1.02-5.04,3.43-6.11,6.61-3.93,11.66,8.11,22.14,15.85,26.49,1.97,1.11,3.54,1.65,4.83,1.65.52,0,.99-.09,1.42-.26,1.83-.73,2.45-2.74,3.04-4.68.21-.68.43-1.38.69-2.05,1.36-3.37,2.42-6.78,1.03-8.86-.46-.69-1.41-1.52-3.31-1.53-.84,0-1.52-.3-2.07-.9-1.76-1.92-1.84-6.39-1.72-7.95.04-.52-.28-1.01-.77-1.18-.49-.18-1.05,0-1.35.43-1.25,1.79-3.23,3.74-4.02,3.7-.11,0-.17-.02-.2-.03-.05-.23.09-.99.68-1.94,1.68-2.67,3.52-4.07,5.49-4.14.06,0,.11,0,.17,0,3.55,0,6.62,4.12,6.65,4.16.26.36.71.54,1.16.46.44-.08.8-.41.91-.85,0-.02.59-2.17,2.07-4.18,1.89-2.55,4.31-3.61,7.19-3.15.18.03,4.47.79,5.36,5.41,1.03,5.33-1.78,18.94-16.81,24.72-.6.23-.9.9-.67,1.5.23.6.91.9,1.5.67,16.39-6.3,19.4-21.41,18.26-27.33Z"/><path class="cls-3" d="M93.02,47.1l-3.52-10.79c.93-.22,1.87-.49,2.84-.8.34-.11.53-.48.41-.83l-.91-2.69c-.11-.33-.48-.51-.81-.4-.97.31-1.9.56-2.82.77l-.75-2.3L78.17,1.56c-.13-.36-.4-.53-.8-.53h-4.55c-.4,0-.67.18-.8.53l-7.67,23.63-.09.27c-1.33-1.42-2.21-2.67-2.65-3.35-.19-.29-.56-.38-.86-.22l-2.47,1.39c-.33.18-.43.6-.23.91.67,1.02,2.26,3.25,4.81,5.58l-1.73,5.34-1.42,4.37-2.48,7.63c-.13.49.04.74.53.74h3.61c.4,0,.67-.18.8-.54l4.01-12.84.54-1.69c3.79,2.48,8.8,4.49,15.08,4.49.97,0,1.98-.06,3.01-.16l3.24,10.2c.13.36.4.54.8.54h3.61c.4,0,.6-.16.6-.47l-.07-.27ZM68.02,28.74l.04-.11,6.84-21.45c.04-.09.11-.13.2-.13s.16.04.2.13l7.78,24.43.47,1.46c-6.77.46-11.9-1.73-15.52-4.32Z"/><path class="cls-2" d="M103.43,46.6c-2.36-1.23-4.2-2.97-5.52-5.22-1.32-2.25-1.97-4.85-1.97-7.79V15.2c0-2.9.66-5.46,1.97-7.69,1.31-2.23,3.15-3.96,5.52-5.18,2.36-1.23,4.01-1.84,7.14-1.84s4.77.6,7.14,1.81c2.36,1.2,4.2,2.9,5.52,5.08,1.31,2.19,1.97,4.7,1.97,7.56,0,.22-.07.4-.2.54s-.29.2-.47.2l-3.41.2c-.45,0-.67-.2-.67-.6v-.2c0-3.17-1-5.69-3.01-7.59-2.01-1.89-3.57-2.84-6.87-2.84s-4.86.96-6.87,2.88c-2.01,1.92-3.01,4.44-3.01,7.56v18.73c0,3.12,1,5.64,3.01,7.56,2.01,1.92,3.57,2.88,6.87,2.88s4.86-.95,6.87-2.84c2.01-1.89,3.01-4.42,3.01-7.59v-.13c0-.4.22-.6.67-.6l3.41.2c.45,0,.67.2.67.6,0,2.9-.66,5.45-1.97,7.66-1.31,2.21-3.15,3.91-5.52,5.12-2.36,1.2-4.02,1.81-7.14,1.81s-4.77-.61-7.14-1.84Z"/><path class="cls-2" d="M157.94,1.02h-3.41c-.37,0-.67.3-.67.67v10.35c-5.69,3.47-11.6,6.66-17.64,9.5V1.69c0-.37-.3-.67-.67-.67h-3.41c-.37,0-.67.3-.67.67v45.48c0,.37.3.67.67.67h3.41c.37,0,.67-.3.67-.67v-21.08c6.02-2.76,11.93-5.85,17.64-9.23v-.4,30.71c0,.37.3.67.67.67h3.41c.37,0,.67-.3.67-.67V1.69c0-.37-.3-.67-.67-.67Z"/><path class="cls-5" d="M167.19,47.17V1.69c0-.45.22-.67.67-.67h3.41c.45,0,.67.22.67.67v45.48c0,.45-.22.67-.67.67h-3.41c-.45,0-.67-.22-.67-.67Z"/><path class="cls-5" d="M181.28,47.17V1.69c0-.45.22-.67.67-.67h3.41c.45,0,.67.22.67.67v41.73c0,.18.09.27.27.27h11.13c.45,0,.67.22.67.67v2.81c0,.45-.22.67-.67.67h-15.48c-.45,0-.67-.22-.67-.67Z"/><path class="cls-5" d="M226.28,5.17h-17.49c-.18,0-.27.09-.27.27v16.52c0,.18.09.27.27.27h9.92c.45,0,.67.22.67.67v2.81c0,.45-.22.67-.67.67h-9.92c-.18,0-.27.09-.27.27v16.79c0,.18.09.27.27.27h17.49c.45,0,.67.22.67.67v2.81c0,.45-.22.67-.67.67h-21.83c-.45,0-.67-.22-.67-.67V1.69c0-.45.22-.67.67-.67h21.83c.45,0,.67.22.67.67v2.81c0,.45-.22.67-.67.67Z"/><path class="cls-5" d="M167.19,47.17V1.69c0-.45.22-.67.67-.67h3.41c.45,0,.67.22.67.67v45.48c0,.45-.22.67-.67.67h-3.41c-.45,0-.67-.22-.67-.67Z"/><path class="cls-3" d="M255.14,9.47h-1.4l3.14-8.73h1.52l3.14,8.73h-1.4l-2.47-7.14h-.07l-2.47,7.14ZM255.38,6.05h4.53v1.11h-4.53v-1.11Z"/><path class="cls-3" d="M267.02,3.03c-.05-.4-.23-.72-.56-.94-.33-.22-.74-.33-1.24-.33-.36,0-.67.06-.93.17-.26.11-.46.27-.61.46s-.21.42-.21.66c0,.21.05.39.15.54.1.15.23.28.39.38s.33.19.52.25c.18.07.36.12.53.16l.85.22c.28.07.56.16.86.28.29.12.56.27.81.46.25.19.45.43.61.71.16.28.23.62.23,1.01,0,.49-.13.93-.38,1.32-.25.38-.62.69-1.1.91-.48.22-1.06.33-1.74.33s-1.22-.1-1.7-.31c-.48-.21-.85-.5-1.12-.88-.27-.38-.42-.84-.45-1.36h1.32c.02.32.13.58.31.79s.41.36.7.46c.28.1.59.15.93.15.37,0,.7-.06,1-.18s.52-.28.69-.49c.17-.21.25-.46.25-.74,0-.26-.07-.47-.22-.63s-.34-.3-.59-.41c-.25-.11-.53-.2-.84-.29l-1.03-.28c-.7-.19-1.25-.47-1.66-.84s-.61-.86-.61-1.46c0-.5.14-.94.41-1.32s.64-.67,1.11-.88c.47-.21.99-.31,1.58-.31s1.11.1,1.57.31c.45.21.81.49,1.07.85s.4.78.41,1.25h-1.27Z"/><path class="cls-3" d="M274.31,3.03c-.05-.4-.23-.72-.56-.94-.33-.22-.74-.33-1.24-.33-.36,0-.67.06-.93.17-.26.11-.46.27-.61.46s-.21.42-.21.66c0,.21.05.39.15.54.1.15.23.28.39.38s.33.19.52.25c.18.07.36.12.53.16l.85.22c.28.07.56.16.86.28.29.12.56.27.81.46.25.19.45.43.61.71.16.28.23.62.23,1.01,0,.49-.13.93-.38,1.32-.25.38-.62.69-1.1.91-.48.22-1.06.33-1.74.33s-1.22-.1-1.7-.31c-.48-.21-.85-.5-1.12-.88-.27-.38-.42-.84-.45-1.36h1.32c.02.32.13.58.31.79s.41.36.7.46c.28.1.59.15.93.15.37,0,.7-.06,1-.18s.52-.28.69-.49c.17-.21.25-.46.25-.74,0-.26-.07-.47-.22-.63s-.34-.3-.59-.41c-.25-.11-.53-.2-.84-.29l-1.03-.28c-.7-.19-1.25-.47-1.66-.84s-.61-.86-.61-1.46c0-.5.14-.94.41-1.32s.64-.67,1.11-.88c.47-.21.99-.31,1.58-.31s1.11.1,1.57.31c.45.21.81.49,1.07.85s.4.78.41,1.25h-1.27Z"/><path class="cls-3" d="M284.63,5.11c0,.93-.17,1.73-.51,2.4-.34.67-.81,1.18-1.4,1.54-.59.36-1.26.54-2.02.54s-1.43-.18-2.02-.54-1.06-.87-1.4-1.54-.51-1.47-.51-2.4.17-1.73.51-2.4.81-1.18,1.4-1.54,1.27-.54,2.02-.54,1.43.18,2.02.54c.59.36,1.06.87,1.4,1.54s.51,1.47.51,2.4ZM283.33,5.11c0-.71-.12-1.31-.34-1.8s-.54-.86-.94-1.11c-.39-.25-.84-.38-1.34-.38s-.95.13-1.35.38c-.39.25-.71.62-.93,1.11s-.34,1.09-.34,1.8.11,1.31.34,1.79c.23.49.54.86.93,1.11.39.25.84.38,1.35.38s.95-.13,1.34-.38c.4-.25.71-.62.94-1.11.23-.49.34-1.09.34-1.79Z"/><path class="cls-3" d="M293.12,3.58h-1.33c-.05-.28-.15-.53-.29-.75s-.31-.4-.51-.55c-.2-.15-.43-.26-.67-.34-.25-.08-.51-.12-.79-.12-.5,0-.95.13-1.35.38-.4.25-.71.62-.94,1.11s-.34,1.09-.34,1.79.11,1.31.34,1.8.54.86.94,1.11.85.37,1.34.37c.28,0,.54-.04.79-.11.25-.08.47-.19.67-.33.2-.15.37-.33.51-.54s.24-.46.29-.74h1.33c-.07.43-.21.83-.41,1.19-.2.36-.46.67-.78.93-.32.26-.68.46-1.09.6-.41.14-.85.21-1.33.21-.76,0-1.43-.18-2.02-.54s-1.06-.87-1.39-1.54-.51-1.47-.51-2.4.17-1.73.51-2.4c.34-.67.81-1.18,1.4-1.54s1.26-.54,2.02-.54c.46,0,.89.07,1.3.2.4.13.76.33,1.08.58.32.25.59.56.8.93s.35.78.43,1.25Z"/><path class="cls-3" d="M295.74.74v8.73h-1.32V.74h1.32Z"/><path class="cls-3" d="M298.41,9.47h-1.4l3.14-8.73h1.52l3.14,8.73h-1.4l-2.47-7.14h-.07l-2.47,7.14ZM298.64,6.05h4.53v1.11h-4.53v-1.11Z"/><path class="cls-3" d="M304.13,1.88V.74h6.75v1.13h-2.72v7.59h-1.31V1.88h-2.72Z"/><path class="cls-3" d="M313.73.74v8.73h-1.32V.74h1.32Z"/><path class="cls-3" d="M322.75,5.11c0,.93-.17,1.73-.51,2.4-.34.67-.81,1.18-1.4,1.54-.59.36-1.26.54-2.02.54s-1.43-.18-2.02-.54-1.06-.87-1.4-1.54-.51-1.47-.51-2.4.17-1.73.51-2.4.81-1.18,1.4-1.54,1.27-.54,2.02-.54,1.43.18,2.02.54c.59.36,1.06.87,1.4,1.54s.51,1.47.51,2.4ZM321.45,5.11c0-.71-.12-1.31-.34-1.8s-.54-.86-.94-1.11c-.39-.25-.84-.38-1.34-.38s-.95.13-1.35.38c-.39.25-.71.62-.93,1.11s-.34,1.09-.34,1.8.11,1.31.34,1.79c.23.49.54.86.93,1.11.39.25.84.38,1.35.38s.95-.13,1.34-.38c.4-.25.71-.62.94-1.11.23-.49.34-1.09.34-1.79Z"/><path class="cls-3" d="M330.88.74v8.73h-1.21l-4.44-6.4h-.08v6.4h-1.32V.74h1.22l4.44,6.41h.08V.74h1.3Z"/><path class="cls-3" d="M261.65,16.58h-1.33c-.05-.28-.15-.53-.29-.75s-.31-.4-.51-.55c-.2-.15-.43-.26-.67-.34-.25-.08-.51-.12-.79-.12-.5,0-.95.13-1.35.38-.4.25-.71.62-.94,1.11s-.34,1.09-.34,1.79.11,1.31.34,1.8.54.86.94,1.11.85.37,1.34.37c.28,0,.54-.04.79-.11.25-.08.47-.19.67-.33.2-.15.37-.33.51-.54s.24-.46.29-.74h1.33c-.07.43-.21.83-.41,1.19-.2.36-.46.67-.78.93-.32.26-.68.46-1.09.6-.41.14-.85.21-1.33.21-.76,0-1.43-.18-2.02-.54s-1.06-.87-1.39-1.54-.51-1.47-.51-2.4.17-1.73.51-2.4.81-1.18,1.4-1.54,1.26-.54,2.02-.54c.46,0,.89.07,1.3.2.4.13.76.33,1.08.58.32.25.59.56.8.93s.35.78.43,1.25Z"/><path class="cls-3" d="M262.63,22.46v-8.73h1.32v3.79h4.35v-3.79h1.32v8.73h-1.32v-3.8h-4.35v3.8h-1.32Z"/><path class="cls-3" d="M272.25,13.74v8.73h-1.32v-8.73h1.32Z"/><path class="cls-3" d="M273.56,22.46v-8.73h3.11c.68,0,1.24.12,1.69.35.45.23.78.56,1,.97.22.41.33.88.33,1.42s-.11,1-.34,1.41c-.22.4-.56.72-1,.94-.45.23-1.01.34-1.69.34h-2.35v-1.13h2.24c.43,0,.77-.06,1.04-.18.27-.12.46-.3.59-.53s.19-.51.19-.84-.06-.61-.19-.86c-.13-.24-.33-.43-.59-.56-.27-.13-.62-.19-1.05-.19h-1.65v7.6h-1.32ZM277.87,18.53l2.16,3.94h-1.5l-2.11-3.94h1.46Z"/><path class="cls-3" d="M286.31,13.74h1.32v5.74c0,.61-.14,1.15-.43,1.62-.29.47-.69.84-1.21,1.11-.52.27-1.13.4-1.83.4s-1.3-.13-1.82-.4c-.52-.27-.92-.64-1.21-1.11-.29-.47-.43-1.01-.43-1.62v-5.74h1.32v5.63c0,.39.09.75.26,1.05.18.31.42.55.74.72.32.17.7.26,1.14.26s.83-.09,1.15-.26.57-.42.74-.72c.17-.31.26-.66.26-1.05v-5.63Z"/><path class="cls-3" d="M288.95,22.46v-8.73h3.11c.68,0,1.24.12,1.69.35.45.23.78.56,1,.97.22.41.33.88.33,1.42s-.11,1-.34,1.41c-.22.4-.56.72-1,.94-.45.23-1.01.34-1.69.34h-2.35v-1.13h2.24c.43,0,.77-.06,1.04-.18.27-.12.46-.3.59-.53s.19-.51.19-.84-.06-.61-.19-.86c-.13-.24-.33-.43-.59-.56-.27-.13-.62-.19-1.05-.19h-1.65v7.6h-1.32ZM293.26,18.53l2.16,3.94h-1.5l-2.11-3.94h1.46Z"/><path class="cls-3" d="M301.99,16.5c-.08-.26-.19-.49-.33-.7s-.3-.38-.49-.53c-.19-.15-.41-.26-.65-.33-.24-.08-.51-.12-.8-.12-.49,0-.93.13-1.33.38-.39.25-.71.62-.93,1.11s-.34,1.08-.34,1.79.12,1.3.35,1.79c.23.49.54.86.95,1.11.4.25.86.38,1.37.38.47,0,.89-.1,1.24-.29.35-.19.63-.47.82-.82.19-.35.29-.77.29-1.25l.34.07h-2.5v-1.09h3.43v.99c0,.73-.16,1.37-.47,1.91s-.74.95-1.29,1.25c-.55.29-1.17.44-1.88.44-.79,0-1.48-.18-2.08-.55-.6-.36-1.06-.88-1.39-1.55-.33-.67-.5-1.46-.5-2.38,0-.7.1-1.32.29-1.87s.46-1.02.81-1.41c.35-.39.77-.68,1.24-.89.48-.21,1-.31,1.56-.31.47,0,.91.07,1.32.21.41.14.77.34,1.09.59.32.26.58.56.79.91.21.35.35.74.43,1.16h-1.35Z"/><path class="cls-3" d="M305.79,13.74v8.73h-1.32v-8.73h1.32Z"/><path class="cls-3" d="M307.1,22.46v-8.73h5.47v1.13h-4.15v2.66h3.87v1.13h-3.87v2.67h4.2v1.13h-5.52Z"/><path class="cls-3" d="M255.72,26.74v8.73h-1.32v-8.73h1.32Z"/><path class="cls-3" d="M264.08,26.74v8.73h-1.21l-4.44-6.4h-.08v6.4h-1.32v-8.73h1.22l4.44,6.41h.08v-6.41h1.3Z"/><path class="cls-3" d="M265.4,35.46v-8.73h5.41v1.13h-4.09v2.66h3.71v1.13h-3.71v3.8h-1.32Z"/><path class="cls-3" d="M271.47,35.46h-1.4l3.14-8.73h1.52l3.14,8.73h-1.4l-2.47-7.14h-.07l-2.47,7.14ZM271.71,32.04h4.53v1.11h-4.53v-1.11Z"/><path class="cls-3" d="M285.58,26.74v8.73h-1.21l-4.44-6.4h-.08v6.4h-1.32v-8.73h1.22l4.44,6.41h.08v-6.41h1.3Z"/><path class="cls-3" d="M286.46,27.87v-1.13h6.75v1.13h-2.72v7.59h-1.31v-7.59h-2.72Z"/><path class="cls-3" d="M295.42,26.74v8.73h-1.32v-8.73h1.32Z"/><path class="cls-3" d="M296.74,35.46v-8.73h1.32v7.59h3.95v1.13h-5.27Z"/><path class="cls-3" d="M302.9,35.46v-8.73h5.47v1.13h-4.15v2.66h3.87v1.13h-3.87v2.67h4.2v1.13h-5.52Z"/><path class="cls-3" d="M255.72,39.73v8.73h-1.32v-8.73h1.32Z"/><path class="cls-3" d="M256.44,48.46v-8.73h1.32v7.59h3.95v1.13h-5.27Z"/><path class="cls-3" d="M262.01,48.46v-8.73h5.47v1.13h-4.15v2.66h3.87v1.13h-3.87v2.67h4.2v1.13h-5.52Z"/><path class="cls-3" d="M271.03,43.54v1.11h-2.28v-1.11h2.28Z"/><path class="cls-3" d="M275.22,48.46h-2.83v-8.73h2.91c.86,0,1.59.17,2.2.52.61.35,1.08.85,1.41,1.5.33.65.49,1.43.49,2.33s-.16,1.69-.5,2.34-.81,1.16-1.43,1.51c-.63.35-1.38.53-2.27.53ZM273.71,47.31h1.44c.66,0,1.22-.12,1.66-.38s.77-.62.99-1.09c.22-.48.33-1.06.33-1.75s-.11-1.27-.33-1.74c-.22-.48-.54-.84-.97-1.09-.43-.25-.96-.37-1.6-.37h-1.52v6.42Z"/><path class="cls-3" d="M279.86,48.46v-8.73h5.47v1.13h-4.15v2.66h3.87v1.13h-3.87v2.67h4.2v1.13h-5.52Z"/><path class="cls-3" d="M288.77,43.54v1.11h-2.28v-1.11h2.28Z"/><path class="cls-3" d="M290.24,48.46v-8.73h5.41v1.13h-4.09v2.66h3.71v1.13h-3.71v3.8h-1.32Z"/><path class="cls-3" d="M296.07,48.46v-8.73h3.11c.68,0,1.24.12,1.69.35.45.23.78.56,1,.97.22.41.33.88.33,1.42s-.11,1-.34,1.41c-.22.4-.56.72-1,.94-.45.23-1.01.34-1.69.34h-2.35v-1.13h2.24c.43,0,.77-.06,1.04-.18.27-.12.46-.3.59-.53s.19-.51.19-.84-.06-.61-.19-.86c-.13-.24-.33-.43-.59-.56-.27-.13-.62-.19-1.05-.19h-1.65v7.6h-1.32ZM300.38,44.52l2.16,3.94h-1.5l-2.11-3.94h1.46Z"/><path class="cls-3" d="M304.09,48.46h-1.4l3.14-8.73h1.52l3.14,8.73h-1.4l-2.47-7.14h-.07l-2.47,7.14ZM304.32,45.04h4.53v1.11h-4.53v-1.11Z"/><path class="cls-3" d="M317.81,39.73v8.73h-1.21l-4.44-6.4h-.08v6.4h-1.32v-8.73h1.22l4.44,6.41h.08v-6.41h1.3Z"/><path class="cls-3" d="M325.78,42.57h-1.33c-.05-.28-.15-.53-.29-.75s-.31-.4-.51-.55c-.2-.15-.43-.26-.67-.34-.25-.08-.51-.12-.79-.12-.5,0-.95.13-1.35.38-.4.25-.71.62-.94,1.11s-.34,1.09-.34,1.79.11,1.31.34,1.8.54.86.94,1.11.85.37,1.34.37c.28,0,.54-.04.79-.11.25-.08.47-.19.67-.33.2-.15.37-.33.51-.54s.24-.46.29-.74h1.33c-.07.43-.21.83-.41,1.19-.2.36-.46.67-.78.93-.32.26-.68.46-1.09.6-.41.14-.85.21-1.33.21-.76,0-1.43-.18-2.02-.54s-1.06-.87-1.39-1.54-.51-1.47-.51-2.4.17-1.73.51-2.4.81-1.18,1.4-1.54,1.26-.54,2.02-.54c.46,0,.89.07,1.3.2.4.13.76.33,1.08.58.32.25.59.56.8.93s.35.78.43,1.25Z"/><path class="cls-3" d="M326.15,48.46v-8.73h4.68v1.13h-3.36v2.66h3.07v1.13h-3.07v2.67h3.41v1.13h-4.73Z"/><path class="cls-1" d="M240.02,48.32V.47h2.03v47.85h-2.03Z"/><rect class="cls-3" x="316.59" y="26.93" width="35.67" height="8.52"/><rect class="cls-3" x="316.59" y="12.27" width="38.18" height="8.52"/><rect class="cls-3" x="316.59" y="19.74" width="40.65" height="8.52"/><path class="cls-6" d="M320.2,18.96h-1.6v-4.51h1.61c.45,0,.84.09,1.17.27.33.18.58.44.76.77s.27.74.27,1.21-.09.87-.27,1.21-.43.6-.76.78c-.33.18-.72.27-1.18.27ZM319.56,18.15h.61c.28,0,.52-.05.71-.15.19-.1.34-.26.44-.47.1-.21.15-.49.15-.82s-.05-.6-.15-.82-.24-.37-.43-.47c-.19-.1-.43-.15-.71-.15h-.61v2.88Z"/><path class="cls-6" d="M324.07,14.45v4.51h-.95v-4.51h.95Z"/><path class="cls-6" d="M327.3,15.75c-.02-.18-.09-.32-.23-.41-.13-.1-.31-.15-.54-.15-.16,0-.29.02-.39.06-.11.04-.19.1-.25.18s-.08.16-.08.26c0,.08.01.15.05.21s.09.11.16.16c.07.04.14.08.23.11.09.03.18.06.28.08l.41.1c.2.04.38.1.54.18.16.07.31.16.43.27.12.11.21.23.28.38.07.15.1.31.1.5,0,.28-.07.51-.21.72s-.34.36-.6.47-.57.17-.94.17-.68-.06-.95-.17c-.27-.11-.48-.28-.63-.5-.15-.22-.23-.49-.24-.82h.92c0,.15.05.28.13.38s.18.18.31.23c.13.05.28.08.44.08s.3-.02.42-.07c.12-.05.21-.11.28-.2.07-.08.1-.18.1-.29,0-.1-.03-.19-.09-.26s-.15-.13-.26-.18c-.11-.05-.25-.09-.42-.13l-.49-.12c-.38-.09-.68-.24-.9-.43-.22-.2-.33-.46-.33-.79,0-.27.07-.51.22-.72.15-.2.35-.36.61-.48.26-.11.55-.17.88-.17s.63.06.88.17c.25.11.44.27.58.48.14.2.21.44.22.71h-.91Z"/><path class="cls-6" d="M328.91,18.96v-4.51h1.78c.34,0,.63.06.87.19.24.13.42.31.55.54.13.23.19.49.19.79s-.06.56-.19.79-.32.41-.56.53c-.24.13-.54.19-.89.19h-1.13v-.76h.98c.18,0,.33-.03.46-.1.12-.06.21-.15.27-.27.06-.11.09-.24.09-.39s-.03-.28-.09-.39c-.06-.11-.15-.2-.27-.26-.12-.06-.27-.09-.46-.09h-.64v3.73h-.95Z"/><path class="cls-6" d="M337.07,16.71c0,.49-.09.91-.28,1.25-.19.35-.44.61-.76.79-.32.18-.68.27-1.08.27s-.76-.09-1.08-.27c-.32-.18-.57-.45-.75-.79-.18-.35-.28-.76-.28-1.25s.09-.91.28-1.25c.18-.35.44-.61.75-.79.32-.18.68-.27,1.08-.27s.76.09,1.08.27c.32.18.57.44.76.79.19.34.28.76.28,1.25ZM336.1,16.71c0-.32-.05-.59-.14-.81-.09-.22-.23-.38-.4-.5-.17-.11-.37-.17-.6-.17s-.43.06-.6.17c-.17.11-.3.28-.4.5-.09.22-.14.49-.14.81s.05.59.14.81c.09.22.23.38.4.5.17.11.37.17.6.17s.43-.06.6-.17c.17-.11.3-.28.4-.5.09-.22.14-.49.14-.81Z"/><path class="cls-6" d="M340.22,15.75c-.02-.18-.09-.32-.23-.41-.13-.1-.31-.15-.54-.15-.16,0-.29.02-.39.06-.11.04-.19.1-.25.18s-.08.16-.08.26c0,.08.01.15.05.21s.09.11.16.16c.07.04.14.08.23.11.09.03.18.06.28.08l.41.1c.2.04.38.1.54.18.16.07.31.16.43.27.12.11.21.23.28.38.07.15.1.31.1.5,0,.28-.07.51-.21.72s-.34.36-.6.47-.57.17-.94.17-.68-.06-.95-.17c-.27-.11-.48-.28-.63-.5-.15-.22-.23-.49-.24-.82h.92c0,.15.05.28.13.38s.18.18.31.23c.13.05.28.08.44.08s.3-.02.42-.07c.12-.05.21-.11.28-.2.07-.08.1-.18.1-.29,0-.1-.03-.19-.09-.26s-.15-.13-.26-.18c-.11-.05-.25-.09-.42-.13l-.49-.12c-.38-.09-.68-.24-.9-.43-.22-.2-.33-.46-.33-.79,0-.27.07-.51.22-.72.15-.2.35-.36.61-.48.26-.11.55-.17.88-.17s.63.06.88.17c.25.11.44.27.58.48.14.2.21.44.22.71h-.91Z"/><path class="cls-6" d="M342.79,14.45v4.51h-.95v-4.51h.95Z"/><path class="cls-6" d="M343.4,15.24v-.79h3.7v.79h-1.38v3.72h-.94v-3.72h-1.38Z"/><path class="cls-6" d="M348.67,14.45v4.51h-.95v-4.51h.95Z"/><path class="cls-6" d="M349.45,18.96v-4.51h2.99v.79h-2.03v1.07h1.83v.79h-1.83v1.86h-.95Z"/><path class="cls-6" d="M321.05,23.01c-.02-.18-.09-.32-.23-.41-.13-.1-.31-.15-.54-.15-.16,0-.29.02-.39.06-.11.04-.19.1-.25.18s-.08.16-.08.26c0,.08.01.15.05.21s.09.11.16.16c.07.04.14.08.23.11.09.03.18.06.28.08l.41.1c.2.04.38.1.54.18.16.07.31.16.43.27.12.11.21.23.28.38.07.15.1.31.1.5,0,.28-.07.51-.21.72s-.34.36-.6.47-.57.17-.94.17-.68-.06-.95-.17c-.27-.11-.48-.28-.63-.5-.15-.22-.23-.49-.24-.82h.92c0,.15.05.28.13.38s.18.18.31.23c.13.05.28.08.44.08s.3-.02.42-.07c.12-.05.21-.11.28-.2.07-.08.1-.18.1-.29,0-.1-.03-.19-.09-.26s-.15-.13-.26-.18c-.11-.05-.25-.09-.42-.13l-.49-.12c-.38-.09-.68-.24-.9-.43-.22-.2-.33-.46-.33-.79,0-.27.07-.51.22-.72.15-.2.35-.36.61-.48.26-.11.55-.17.88-.17s.63.06.88.17c.25.11.44.27.58.48.14.2.21.44.22.71h-.91Z"/><path class="cls-6" d="M322.66,26.22v-4.51h1.78c.34,0,.63.06.87.19.24.13.42.31.55.54.13.23.19.49.19.79s-.06.56-.19.79-.32.41-.56.53c-.24.13-.54.19-.89.19h-1.13v-.76h.98c.18,0,.33-.03.46-.1.12-.06.21-.15.27-.27.06-.11.09-.24.09-.39s-.03-.28-.09-.39c-.06-.11-.15-.2-.27-.26-.12-.06-.27-.09-.46-.09h-.64v3.73h-.95Z"/><path class="cls-6" d="M326.68,26.22v-4.51h3.04v.79h-2.08v1.07h1.93v.79h-1.93v1.08h2.09v.79h-3.05ZM327.87,21.27l.47-1h.87l-.67,1h-.66Z"/><path class="cls-6" d="M334.45,23.29h-.96c-.02-.12-.05-.24-.11-.33-.05-.1-.12-.18-.21-.25-.09-.07-.18-.12-.29-.16-.11-.04-.23-.06-.36-.06-.23,0-.44.06-.61.17-.17.12-.31.28-.4.5-.09.22-.14.49-.14.8s.05.59.14.81c.1.22.23.38.4.5s.37.17.6.17c.13,0,.25-.02.36-.05s.21-.08.29-.15c.08-.07.16-.15.21-.24.06-.09.1-.2.12-.32h.96c-.03.21-.09.41-.19.6-.1.19-.23.36-.4.51-.17.15-.36.27-.59.36-.23.09-.49.13-.78.13-.4,0-.76-.09-1.08-.27-.32-.18-.57-.45-.75-.79-.18-.35-.27-.76-.27-1.25s.09-.91.28-1.25c.18-.35.44-.61.75-.79.32-.18.67-.27,1.07-.27.26,0,.5.04.73.11.22.07.42.18.59.32.17.14.31.31.42.51.11.2.18.43.21.7Z"/><path class="cls-6" d="M336.09,21.71v4.51h-.95v-4.51h.95Z"/><path class="cls-6" d="M336.88,26.22v-4.51h2.99v.79h-2.03v1.07h1.83v.79h-1.83v1.86h-.95Z"/><path class="cls-6" d="M341.46,21.71v4.51h-.95v-4.51h.95Z"/><path class="cls-6" d="M346.39,23.96c0,.49-.09.91-.28,1.25-.19.35-.44.61-.76.79-.32.18-.68.27-1.08.27s-.76-.09-1.08-.27c-.32-.18-.57-.45-.75-.79-.18-.35-.28-.76-.28-1.25s.09-.91.28-1.25c.18-.35.44-.61.75-.79.32-.18.68-.27,1.08-.27s.76.09,1.08.27c.32.18.57.44.76.79.19.34.28.76.28,1.25ZM345.42,23.96c0-.32-.05-.59-.14-.81-.09-.22-.23-.38-.4-.5-.17-.11-.37-.17-.6-.17s-.43.06-.6.17c-.17.11-.3.28-.4.5-.09.22-.14.49-.14.81s.05.59.14.81c.09.22.23.38.4.5.17.11.37.17.6.17s.43-.06.6-.17c.17-.11.3-.28.4-.5.09-.22.14-.49.14-.81ZM343.94,24.65h.81l.41.52.4.47.75.95h-.89l-.52-.64-.27-.38-.7-.92Z"/><path class="cls-6" d="M349.88,21.71h.95v2.93c0,.33-.08.62-.23.86s-.38.44-.66.58-.61.21-.98.21-.7-.07-.98-.21-.5-.33-.65-.58-.23-.53-.23-.86v-2.93h.95v2.85c0,.17.04.32.11.46.08.13.18.24.32.31.14.08.3.11.48.11s.35-.04.48-.11c.14-.08.24-.18.32-.31.08-.13.11-.29.11-.46v-2.85Z"/><path class="cls-6" d="M351.62,26.22v-4.51h3.04v.79h-2.08v1.07h1.93v.79h-1.93v1.08h2.09v.79h-3.05Z"/><path class="cls-6" d="M318.6,33.47v-4.51h1.78c.34,0,.63.06.87.18.24.12.43.29.55.51.13.22.19.48.19.78s-.06.56-.19.77-.32.38-.56.49c-.24.11-.54.17-.89.17h-1.19v-.77h1.04c.18,0,.33-.02.45-.07.12-.05.21-.12.27-.22.06-.1.09-.22.09-.37s-.03-.28-.09-.38c-.06-.1-.15-.18-.27-.23-.12-.05-.27-.08-.46-.08h-.64v3.73h-.95ZM321.04,31.42l1.12,2.05h-1.05l-1.1-2.05h1.03Z"/><path class="cls-6" d="M322.67,33.47v-4.51h3.04v.79h-2.08v1.07h1.93v.79h-1.93v1.08h2.09v.79h-3.05ZM323.86,28.53l.47-1h.87l-.67,1h-.66Z"/><path class="cls-6" d="M329.46,30.42c-.03-.11-.07-.2-.13-.28-.06-.08-.12-.15-.2-.21-.08-.06-.17-.1-.27-.13-.1-.03-.21-.05-.34-.05-.23,0-.43.06-.61.17s-.31.28-.41.5c-.1.22-.14.48-.14.8s.05.58.14.8c.1.22.23.39.41.5s.38.17.62.17c.22,0,.4-.04.55-.12s.27-.19.35-.33c.08-.14.12-.31.12-.5l.19.03h-1.16v-.72h1.89v.57c0,.4-.08.74-.25,1.02-.17.28-.4.5-.69.66-.29.15-.63.23-1.01.23-.42,0-.79-.09-1.11-.28-.32-.19-.57-.45-.75-.8s-.27-.76-.27-1.23c0-.37.05-.69.16-.98.11-.29.25-.53.45-.73s.42-.35.67-.46c.25-.1.53-.16.83-.16.25,0,.49.04.71.11.22.07.42.18.59.31.17.13.31.3.42.48s.18.39.21.61h-.97Z"/><path class="cls-6" d="M332.14,28.96v4.51h-.95v-4.51h.95Z"/><path class="cls-6" d="M337.07,31.22c0,.49-.09.91-.28,1.25-.19.35-.44.61-.76.79-.32.18-.68.27-1.08.27s-.76-.09-1.08-.27c-.32-.18-.57-.45-.75-.79-.18-.35-.28-.76-.28-1.25s.09-.91.28-1.25c.18-.35.44-.61.75-.79.32-.18.68-.27,1.08-.27s.76.09,1.08.27c.32.18.57.44.76.79.19.34.28.76.28,1.25ZM336.1,31.22c0-.32-.05-.59-.14-.81-.09-.22-.23-.38-.4-.5-.17-.11-.37-.17-.6-.17s-.43.06-.6.17c-.17.11-.3.28-.4.5-.09.22-.14.49-.14.81s.05.59.14.81c.09.22.23.38.4.5.17.11.37.17.6.17s.43-.06.6-.17c.17-.11.3-.28.4-.5.09-.22.14-.49.14-.81Z"/><path class="cls-6" d="M341.54,28.96v4.51h-.82l-1.96-2.84h-.03v2.84h-.95v-4.51h.84l1.95,2.84h.04v-2.84h.95Z"/><path class="cls-6" d="M343.11,33.47h-1.02l1.56-4.51h1.23l1.55,4.51h-1.02l-1.13-3.48h-.04l-1.13,3.48ZM343.04,31.7h2.41v.74h-2.41v-.74Z"/><path class="cls-6" d="M346.96,33.47v-4.51h.95v3.72h1.93v.79h-2.89Z"/></g></svg>